<mxfile host="app.diagrams.net" modified="2023-02-07T14:25:36.110Z" agent="5.0 (Windows NT 10.0; Win64; x64) AppleWebKit/537.36 (KHTML, like Gecko) Chrome/109.0.0.0 Safari/537.36 Edg/109.0.1518.78" etag="F2IU0KCjhkcqn-88GMUp" version="20.8.18" type="github" pages="5">
  <diagram id="SsYVPQBjMPXw2YepnRtf" name="Overview">
    <mxGraphModel dx="2049" dy="1091" grid="1" gridSize="10" guides="1" tooltips="1" connect="1" arrows="1" fold="1" page="1" pageScale="1" pageWidth="2000" pageHeight="2000" math="0" shadow="0">
      <root>
        <mxCell id="0" />
        <mxCell id="1" parent="0" />
        <mxCell id="h8nuKcstG7CEJwlITLcQ-13" style="edgeStyle=orthogonalEdgeStyle;shape=link;rounded=0;orthogonalLoop=1;jettySize=auto;html=1;entryX=0.5;entryY=0;entryDx=0;entryDy=0;" parent="1" source="h8nuKcstG7CEJwlITLcQ-1" target="h8nuKcstG7CEJwlITLcQ-9" edge="1">
          <mxGeometry relative="1" as="geometry" />
        </mxCell>
        <mxCell id="h8nuKcstG7CEJwlITLcQ-14" style="edgeStyle=orthogonalEdgeStyle;shape=link;rounded=0;orthogonalLoop=1;jettySize=auto;html=1;entryX=0.5;entryY=0;entryDx=0;entryDy=0;" parent="1" source="h8nuKcstG7CEJwlITLcQ-1" target="h8nuKcstG7CEJwlITLcQ-3" edge="1">
          <mxGeometry relative="1" as="geometry" />
        </mxCell>
        <mxCell id="h8nuKcstG7CEJwlITLcQ-15" style="edgeStyle=orthogonalEdgeStyle;shape=link;rounded=0;orthogonalLoop=1;jettySize=auto;html=1;entryX=0.5;entryY=0;entryDx=0;entryDy=0;" parent="1" source="h8nuKcstG7CEJwlITLcQ-1" target="h8nuKcstG7CEJwlITLcQ-5" edge="1">
          <mxGeometry relative="1" as="geometry" />
        </mxCell>
        <mxCell id="h8nuKcstG7CEJwlITLcQ-1" value="Chess" style="shape=ext;double=1;whiteSpace=wrap;html=1;aspect=fixed;" parent="1" vertex="1">
          <mxGeometry x="1020" y="10" width="40" height="40" as="geometry" />
        </mxCell>
        <mxCell id="h8nuKcstG7CEJwlITLcQ-10" style="edgeStyle=orthogonalEdgeStyle;rounded=0;orthogonalLoop=1;jettySize=auto;html=1;" parent="1" source="h8nuKcstG7CEJwlITLcQ-3" target="h8nuKcstG7CEJwlITLcQ-9" edge="1">
          <mxGeometry relative="1" as="geometry" />
        </mxCell>
        <mxCell id="h8nuKcstG7CEJwlITLcQ-17" style="edgeStyle=orthogonalEdgeStyle;rounded=0;orthogonalLoop=1;jettySize=auto;html=1;exitX=0;exitY=0.5;exitDx=0;exitDy=0;entryX=1;entryY=0.5;entryDx=0;entryDy=0;" parent="1" source="h8nuKcstG7CEJwlITLcQ-3" target="h8nuKcstG7CEJwlITLcQ-5" edge="1">
          <mxGeometry relative="1" as="geometry" />
        </mxCell>
        <mxCell id="h8nuKcstG7CEJwlITLcQ-22" style="edgeStyle=none;shape=link;rounded=0;orthogonalLoop=1;jettySize=auto;html=1;entryX=0.5;entryY=0;entryDx=0;entryDy=0;" parent="1" source="h8nuKcstG7CEJwlITLcQ-3" target="h8nuKcstG7CEJwlITLcQ-19" edge="1">
          <mxGeometry relative="1" as="geometry" />
        </mxCell>
        <mxCell id="h8nuKcstG7CEJwlITLcQ-23" style="edgeStyle=none;shape=link;rounded=0;orthogonalLoop=1;jettySize=auto;html=1;entryX=0.5;entryY=0;entryDx=0;entryDy=0;" parent="1" source="h8nuKcstG7CEJwlITLcQ-3" target="h8nuKcstG7CEJwlITLcQ-18" edge="1">
          <mxGeometry relative="1" as="geometry" />
        </mxCell>
        <mxCell id="h8nuKcstG7CEJwlITLcQ-24" style="edgeStyle=none;shape=link;rounded=0;orthogonalLoop=1;jettySize=auto;html=1;entryX=0.5;entryY=0;entryDx=0;entryDy=0;" parent="1" source="h8nuKcstG7CEJwlITLcQ-3" target="h8nuKcstG7CEJwlITLcQ-20" edge="1">
          <mxGeometry relative="1" as="geometry" />
        </mxCell>
        <mxCell id="fi1bEZxrc1-2y8NFk42M-3" style="edgeStyle=none;shape=link;rounded=0;orthogonalLoop=1;jettySize=auto;html=1;exitX=0.75;exitY=0;exitDx=0;exitDy=0;entryX=0;entryY=0.5;entryDx=0;entryDy=0;" parent="1" source="h8nuKcstG7CEJwlITLcQ-3" target="fi1bEZxrc1-2y8NFk42M-2" edge="1">
          <mxGeometry relative="1" as="geometry" />
        </mxCell>
        <mxCell id="txeY-TmiMxLKm7RGeQa2-3" style="rounded=0;orthogonalLoop=1;jettySize=auto;html=1;exitX=0.25;exitY=0;exitDx=0;exitDy=0;entryX=1;entryY=0.5;entryDx=0;entryDy=0;shape=link;" parent="1" source="h8nuKcstG7CEJwlITLcQ-3" target="txeY-TmiMxLKm7RGeQa2-1" edge="1">
          <mxGeometry relative="1" as="geometry" />
        </mxCell>
        <mxCell id="h8nuKcstG7CEJwlITLcQ-3" value="Chess Manager" style="rounded=0;whiteSpace=wrap;html=1;fillColor=#d5e8d4;strokeColor=#82b366;" parent="1" vertex="1">
          <mxGeometry x="990" y="100" width="100" height="40" as="geometry" />
        </mxCell>
        <mxCell id="h8nuKcstG7CEJwlITLcQ-7" style="edgeStyle=orthogonalEdgeStyle;rounded=0;orthogonalLoop=1;jettySize=auto;html=1;entryX=0;entryY=0.5;entryDx=0;entryDy=0;" parent="1" source="h8nuKcstG7CEJwlITLcQ-5" target="h8nuKcstG7CEJwlITLcQ-3" edge="1">
          <mxGeometry relative="1" as="geometry" />
        </mxCell>
        <mxCell id="h8nuKcstG7CEJwlITLcQ-5" value="AI" style="rounded=0;whiteSpace=wrap;html=1;fillColor=#ffe6cc;strokeColor=#d79b00;" parent="1" vertex="1">
          <mxGeometry x="790" y="100" width="100" height="40" as="geometry" />
        </mxCell>
        <mxCell id="h8nuKcstG7CEJwlITLcQ-11" style="edgeStyle=orthogonalEdgeStyle;rounded=0;orthogonalLoop=1;jettySize=auto;html=1;entryX=1;entryY=0.5;entryDx=0;entryDy=0;" parent="1" source="h8nuKcstG7CEJwlITLcQ-9" target="h8nuKcstG7CEJwlITLcQ-3" edge="1">
          <mxGeometry relative="1" as="geometry" />
        </mxCell>
        <mxCell id="h8nuKcstG7CEJwlITLcQ-37" style="edgeStyle=none;shape=link;rounded=0;orthogonalLoop=1;jettySize=auto;html=1;exitX=0.5;exitY=1;exitDx=0;exitDy=0;entryX=0.5;entryY=0;entryDx=0;entryDy=0;" parent="1" source="h8nuKcstG7CEJwlITLcQ-9" target="h8nuKcstG7CEJwlITLcQ-35" edge="1">
          <mxGeometry relative="1" as="geometry" />
        </mxCell>
        <mxCell id="h8nuKcstG7CEJwlITLcQ-9" value="Network Manager" style="rounded=0;whiteSpace=wrap;html=1;fillColor=#d5e8d4;strokeColor=#82b366;" parent="1" vertex="1">
          <mxGeometry x="1300" y="100" width="100" height="40" as="geometry" />
        </mxCell>
        <mxCell id="h8nuKcstG7CEJwlITLcQ-25" style="edgeStyle=none;rounded=0;orthogonalLoop=1;jettySize=auto;html=1;exitX=0;exitY=0.5;exitDx=0;exitDy=0;entryX=1;entryY=0.5;entryDx=0;entryDy=0;" parent="1" source="h8nuKcstG7CEJwlITLcQ-18" target="h8nuKcstG7CEJwlITLcQ-19" edge="1">
          <mxGeometry relative="1" as="geometry" />
        </mxCell>
        <mxCell id="h8nuKcstG7CEJwlITLcQ-26" style="edgeStyle=none;rounded=0;orthogonalLoop=1;jettySize=auto;html=1;exitX=1;exitY=0.5;exitDx=0;exitDy=0;entryX=0;entryY=0.5;entryDx=0;entryDy=0;" parent="1" source="h8nuKcstG7CEJwlITLcQ-18" target="h8nuKcstG7CEJwlITLcQ-20" edge="1">
          <mxGeometry relative="1" as="geometry" />
        </mxCell>
        <mxCell id="h8nuKcstG7CEJwlITLcQ-29" style="edgeStyle=none;shape=link;rounded=0;orthogonalLoop=1;jettySize=auto;html=1;exitX=0.5;exitY=1;exitDx=0;exitDy=0;entryX=0.5;entryY=0;entryDx=0;entryDy=0;" parent="1" source="h8nuKcstG7CEJwlITLcQ-18" target="h8nuKcstG7CEJwlITLcQ-27" edge="1">
          <mxGeometry relative="1" as="geometry" />
        </mxCell>
        <mxCell id="h8nuKcstG7CEJwlITLcQ-18" value="Game Manager" style="rounded=1;whiteSpace=wrap;html=1;fillColor=#d5e8d4;strokeColor=#82b366;" parent="1" vertex="1">
          <mxGeometry x="990" y="190" width="100" height="30" as="geometry" />
        </mxCell>
        <mxCell id="h8nuKcstG7CEJwlITLcQ-19" value="Save System" style="rounded=1;whiteSpace=wrap;html=1;fillColor=#d5e8d4;strokeColor=#82b366;" parent="1" vertex="1">
          <mxGeometry x="870" y="190" width="100" height="30" as="geometry" />
        </mxCell>
        <mxCell id="h8nuKcstG7CEJwlITLcQ-20" value="Board Renderer" style="rounded=1;whiteSpace=wrap;html=1;fillColor=#d5e8d4;strokeColor=#82b366;" parent="1" vertex="1">
          <mxGeometry x="1110" y="190" width="100" height="30" as="geometry" />
        </mxCell>
        <mxCell id="h8nuKcstG7CEJwlITLcQ-21" style="edgeStyle=none;rounded=0;orthogonalLoop=1;jettySize=auto;html=1;entryX=0.5;entryY=1;entryDx=0;entryDy=0;" parent="1" source="h8nuKcstG7CEJwlITLcQ-3" target="h8nuKcstG7CEJwlITLcQ-3" edge="1">
          <mxGeometry relative="1" as="geometry" />
        </mxCell>
        <mxCell id="h8nuKcstG7CEJwlITLcQ-30" style="edgeStyle=none;shape=link;rounded=0;orthogonalLoop=1;jettySize=auto;html=1;exitX=0.5;exitY=1;exitDx=0;exitDy=0;entryX=0.5;entryY=0;entryDx=0;entryDy=0;" parent="1" source="h8nuKcstG7CEJwlITLcQ-27" target="h8nuKcstG7CEJwlITLcQ-28" edge="1">
          <mxGeometry relative="1" as="geometry" />
        </mxCell>
        <mxCell id="h8nuKcstG7CEJwlITLcQ-31" style="edgeStyle=none;rounded=0;orthogonalLoop=1;jettySize=auto;html=1;exitX=0;exitY=0.5;exitDx=0;exitDy=0;entryX=0.5;entryY=1;entryDx=0;entryDy=0;" parent="1" source="h8nuKcstG7CEJwlITLcQ-27" target="h8nuKcstG7CEJwlITLcQ-19" edge="1">
          <mxGeometry relative="1" as="geometry" />
        </mxCell>
        <mxCell id="h8nuKcstG7CEJwlITLcQ-33" style="edgeStyle=none;rounded=0;orthogonalLoop=1;jettySize=auto;html=1;exitX=1;exitY=0.5;exitDx=0;exitDy=0;entryX=0.5;entryY=1;entryDx=0;entryDy=0;" parent="1" source="h8nuKcstG7CEJwlITLcQ-27" target="h8nuKcstG7CEJwlITLcQ-20" edge="1">
          <mxGeometry relative="1" as="geometry" />
        </mxCell>
        <mxCell id="h8nuKcstG7CEJwlITLcQ-27" value="Board" style="rounded=1;whiteSpace=wrap;html=1;fillColor=#d5e8d4;strokeColor=#82b366;" parent="1" vertex="1">
          <mxGeometry x="990" y="240" width="100" height="30" as="geometry" />
        </mxCell>
        <mxCell id="h8nuKcstG7CEJwlITLcQ-32" style="edgeStyle=none;rounded=0;orthogonalLoop=1;jettySize=auto;html=1;exitX=0;exitY=0.5;exitDx=0;exitDy=0;" parent="1" source="h8nuKcstG7CEJwlITLcQ-28" edge="1">
          <mxGeometry relative="1" as="geometry">
            <mxPoint x="920" y="220" as="targetPoint" />
          </mxGeometry>
        </mxCell>
        <mxCell id="h8nuKcstG7CEJwlITLcQ-34" style="edgeStyle=none;rounded=0;orthogonalLoop=1;jettySize=auto;html=1;exitX=1;exitY=0.5;exitDx=0;exitDy=0;" parent="1" source="h8nuKcstG7CEJwlITLcQ-28" edge="1">
          <mxGeometry relative="1" as="geometry">
            <mxPoint x="1160" y="220" as="targetPoint" />
          </mxGeometry>
        </mxCell>
        <mxCell id="h8nuKcstG7CEJwlITLcQ-28" value="Pieces" style="rounded=1;whiteSpace=wrap;html=1;fillColor=#d5e8d4;strokeColor=#82b366;" parent="1" vertex="1">
          <mxGeometry x="990" y="290" width="100" height="30" as="geometry" />
        </mxCell>
        <mxCell id="h8nuKcstG7CEJwlITLcQ-35" value="Client" style="rounded=1;whiteSpace=wrap;html=1;fillColor=#d5e8d4;strokeColor=#82b366;" parent="1" vertex="1">
          <mxGeometry x="1240" y="190" width="100" height="30" as="geometry" />
        </mxCell>
        <mxCell id="h8nuKcstG7CEJwlITLcQ-38" style="edgeStyle=none;shape=link;rounded=0;orthogonalLoop=1;jettySize=auto;html=1;exitX=0.5;exitY=0;exitDx=0;exitDy=0;entryX=0.5;entryY=1;entryDx=0;entryDy=0;" parent="1" source="h8nuKcstG7CEJwlITLcQ-36" target="h8nuKcstG7CEJwlITLcQ-9" edge="1">
          <mxGeometry relative="1" as="geometry" />
        </mxCell>
        <mxCell id="h8nuKcstG7CEJwlITLcQ-36" value="Server" style="rounded=1;whiteSpace=wrap;html=1;fillColor=#d5e8d4;strokeColor=#82b366;" parent="1" vertex="1">
          <mxGeometry x="1370" y="190" width="100" height="30" as="geometry" />
        </mxCell>
        <mxCell id="h8nuKcstG7CEJwlITLcQ-39" value="&lt;h1&gt;AI&lt;/h1&gt;&lt;p&gt;AI built with the minimax algorithm&lt;/p&gt;&lt;p&gt;Interfaces:&lt;/p&gt;&lt;p&gt;&lt;/p&gt;&lt;ul&gt;&lt;li&gt;Chess manager will give it a board state and signal for it to start looking for a move&lt;/li&gt;&lt;li&gt;Chess manager will poll the AI for whether the moves has been calculated or a progress %&lt;/li&gt;&lt;/ul&gt;&lt;p&gt;&lt;/p&gt;" style="text;html=1;strokeColor=none;fillColor=none;spacing=5;spacingTop=-20;whiteSpace=wrap;overflow=hidden;rounded=0;" parent="1" vertex="1">
          <mxGeometry x="570" y="350" width="300" height="210" as="geometry" />
        </mxCell>
        <mxCell id="h8nuKcstG7CEJwlITLcQ-40" value="&lt;h1&gt;Chess Manager&lt;/h1&gt;&lt;p&gt;General manager of entire game&lt;/p&gt;&lt;p&gt;Interfaces:&lt;/p&gt;&lt;p&gt;&lt;/p&gt;&lt;ul&gt;&lt;li&gt;AI (See AI)&lt;/li&gt;&lt;li&gt;Network Manager (See Network Manager)&lt;/li&gt;&lt;li&gt;Will signal save system to start saving&lt;/li&gt;&lt;li&gt;Will orchestrate communications between Game Manager and (AI or Network Manager)&lt;/li&gt;&lt;li&gt;Will encapsulate Game Manager to allow Visual Manager to pull data from it&lt;/li&gt;&lt;/ul&gt;&lt;p&gt;&lt;/p&gt;" style="text;html=1;strokeColor=none;fillColor=none;spacing=5;spacingTop=-20;whiteSpace=wrap;overflow=hidden;rounded=0;" parent="1" vertex="1">
          <mxGeometry x="890" y="350" width="300" height="210" as="geometry" />
        </mxCell>
        <mxCell id="h8nuKcstG7CEJwlITLcQ-41" value="&lt;h1&gt;Network Manager&lt;/h1&gt;&lt;p&gt;Handles network communications. Start the server and client when needed and gets their status as needed&lt;/p&gt;&lt;p&gt;Interfaces:&lt;/p&gt;&lt;p&gt;&lt;/p&gt;&lt;ul&gt;&lt;li&gt;Will give the next opponent move to the Game Manager if available&lt;/li&gt;&lt;li&gt;Will inform the Game Manager of player disconnects&lt;/li&gt;&lt;/ul&gt;&lt;p&gt;&lt;/p&gt;" style="text;html=1;strokeColor=none;fillColor=none;spacing=5;spacingTop=-20;whiteSpace=wrap;overflow=hidden;rounded=0;" parent="1" vertex="1">
          <mxGeometry x="1240" y="360" width="300" height="210" as="geometry" />
        </mxCell>
        <mxCell id="h8nuKcstG7CEJwlITLcQ-42" value="&lt;h1&gt;Game Manager, Board, Pieces&lt;/h1&gt;&lt;p&gt;Will have an abstract parent classes and the Game Manager, Board and Pieces will be children of those classes allowing for new gamemodes to be created quickly&lt;/p&gt;&lt;p&gt;Game Manager:&lt;/p&gt;&lt;p&gt;&lt;/p&gt;&lt;ul&gt;&lt;li&gt;Handles turn changes e.g. a chess variation where a player has two turns per side&lt;/li&gt;&lt;li&gt;Handles illegal move detection e.g. not allowing you to put your king in check&lt;/li&gt;&lt;/ul&gt;Board&lt;br&gt;&lt;ul&gt;&lt;li&gt;Handles the size of the board&lt;/li&gt;&lt;li&gt;Has methods pieces can use to check sight lines, check whether moves are possible etc&lt;/li&gt;&lt;/ul&gt;Pieces&lt;br&gt;&lt;ul&gt;&lt;li&gt;Will have a value (for the AI to know its value)&lt;/li&gt;&lt;li&gt;Will have a getMoves method&lt;/li&gt;&lt;li&gt;Will have stored data e.g. IsPoisoned or HasMoved&lt;/li&gt;&lt;/ul&gt;&lt;p&gt;&lt;/p&gt;&lt;p&gt;&lt;/p&gt;" style="text;html=1;strokeColor=none;fillColor=none;spacing=5;spacingTop=-20;whiteSpace=wrap;overflow=hidden;rounded=0;" parent="1" vertex="1">
          <mxGeometry x="890" y="590" width="300" height="420" as="geometry" />
        </mxCell>
        <mxCell id="h8nuKcstG7CEJwlITLcQ-44" value="&lt;h1&gt;&lt;span style=&quot;background-color: initial;&quot;&gt;Client&lt;/span&gt;&lt;/h1&gt;&lt;div&gt;&lt;span style=&quot;background-color: initial;&quot;&gt;Will send and receive moves&lt;/span&gt;&lt;/div&gt;&lt;p&gt;&lt;/p&gt;" style="text;html=1;strokeColor=none;fillColor=none;spacing=5;spacingTop=-20;whiteSpace=wrap;overflow=hidden;rounded=0;" parent="1" vertex="1">
          <mxGeometry x="1241" y="590" width="300" height="80" as="geometry" />
        </mxCell>
        <mxCell id="h8nuKcstG7CEJwlITLcQ-45" value="&lt;h1&gt;&lt;span style=&quot;background-color: initial;&quot;&gt;Server&lt;/span&gt;&lt;/h1&gt;&lt;div&gt;&lt;span style=&quot;background-color: initial;&quot;&gt;Will primarily act as a relay between clients however it will also handle client connection, the lobby before games (e.g. enforcing an x player limit or a password requirement) and gamemode syncronisation&lt;/span&gt;&lt;/div&gt;&lt;p&gt;&lt;/p&gt;" style="text;html=1;strokeColor=none;fillColor=none;spacing=5;spacingTop=-20;whiteSpace=wrap;overflow=hidden;rounded=0;" parent="1" vertex="1">
          <mxGeometry x="1241" y="680" width="300" height="110" as="geometry" />
        </mxCell>
        <mxCell id="fi1bEZxrc1-2y8NFk42M-1" value="&lt;h1&gt;Save System&lt;/h1&gt;&lt;p&gt;Will interact with the GameManager, Board and Pieces to serialise and deserialise them.&lt;/p&gt;&lt;p&gt;Will be called by the Chess Manager when needed&lt;/p&gt;&lt;p&gt;&lt;/p&gt;&lt;p&gt;&lt;/p&gt;" style="text;html=1;strokeColor=none;fillColor=none;spacing=5;spacingTop=-20;whiteSpace=wrap;overflow=hidden;rounded=0;" parent="1" vertex="1">
          <mxGeometry x="570" y="590" width="300" height="130" as="geometry" />
        </mxCell>
        <mxCell id="fi1bEZxrc1-2y8NFk42M-2" value="Input Manager" style="rounded=0;whiteSpace=wrap;html=1;fillColor=#d5e8d4;strokeColor=#82b366;" parent="1" vertex="1">
          <mxGeometry x="1090" y="60" width="90" height="30" as="geometry" />
        </mxCell>
        <mxCell id="fi1bEZxrc1-2y8NFk42M-4" value="&lt;h1&gt;Input Manager&lt;/h1&gt;&lt;p&gt;Will act as an encapsulation layer over Unity&#39;s input system. For example instead of the Game Manager listening for Ctrl+S, the Game Manager will use:&lt;/p&gt;&lt;p&gt;if (InputManager.SaveKey) { ... }&lt;/p&gt;&lt;p&gt;&lt;br&gt;&lt;/p&gt;&lt;p&gt;This will allow for keys to be easily rebound from a central location and could potentially (if development time allows) be used to allow the user to change their keybinds&lt;/p&gt;&lt;p&gt;&lt;/p&gt;&lt;p&gt;&lt;/p&gt;" style="text;html=1;strokeColor=none;fillColor=none;spacing=5;spacingTop=-20;whiteSpace=wrap;overflow=hidden;rounded=0;" parent="1" vertex="1">
          <mxGeometry x="570" y="750" width="300" height="230" as="geometry" />
        </mxCell>
        <mxCell id="F6VNp0IMm9RkLIZq4vwl-6" style="edgeStyle=none;rounded=0;orthogonalLoop=1;jettySize=auto;html=1;exitX=0.5;exitY=1;exitDx=0;exitDy=0;entryX=0.5;entryY=0;entryDx=0;entryDy=0;" parent="1" source="F6VNp0IMm9RkLIZq4vwl-1" target="F6VNp0IMm9RkLIZq4vwl-2" edge="1">
          <mxGeometry relative="1" as="geometry" />
        </mxCell>
        <mxCell id="F6VNp0IMm9RkLIZq4vwl-7" style="edgeStyle=none;rounded=0;orthogonalLoop=1;jettySize=auto;html=1;exitX=0.5;exitY=1;exitDx=0;exitDy=0;entryX=0.5;entryY=0;entryDx=0;entryDy=0;" parent="1" source="F6VNp0IMm9RkLIZq4vwl-1" target="F6VNp0IMm9RkLIZq4vwl-3" edge="1">
          <mxGeometry relative="1" as="geometry" />
        </mxCell>
        <mxCell id="F6VNp0IMm9RkLIZq4vwl-8" style="edgeStyle=none;rounded=0;orthogonalLoop=1;jettySize=auto;html=1;exitX=0.5;exitY=1;exitDx=0;exitDy=0;entryX=0.5;entryY=0;entryDx=0;entryDy=0;" parent="1" source="F6VNp0IMm9RkLIZq4vwl-1" target="F6VNp0IMm9RkLIZq4vwl-4" edge="1">
          <mxGeometry relative="1" as="geometry" />
        </mxCell>
        <mxCell id="F6VNp0IMm9RkLIZq4vwl-1" value="Piece (Abstract)" style="rounded=1;whiteSpace=wrap;html=1;fillColor=#d5e8d4;strokeColor=#82b366;" parent="1" vertex="1">
          <mxGeometry x="1790" y="20" width="100" height="30" as="geometry" />
        </mxCell>
        <mxCell id="F6VNp0IMm9RkLIZq4vwl-2" value="King" style="rounded=1;whiteSpace=wrap;html=1;" parent="1" vertex="1">
          <mxGeometry x="1660" y="105" width="100" height="30" as="geometry" />
        </mxCell>
        <mxCell id="F6VNp0IMm9RkLIZq4vwl-3" value="Queen" style="rounded=1;whiteSpace=wrap;html=1;" parent="1" vertex="1">
          <mxGeometry x="1790" y="105" width="100" height="30" as="geometry" />
        </mxCell>
        <mxCell id="F6VNp0IMm9RkLIZq4vwl-4" value="..." style="rounded=1;whiteSpace=wrap;html=1;" parent="1" vertex="1">
          <mxGeometry x="1910" y="105" width="100" height="30" as="geometry" />
        </mxCell>
        <mxCell id="F6VNp0IMm9RkLIZq4vwl-9" value="Piece (Abstract)" style="shape=table;startSize=30;container=1;collapsible=1;childLayout=tableLayout;fixedRows=1;rowLines=0;fontStyle=1;align=center;resizeLast=1;" parent="1" vertex="1">
          <mxGeometry x="1711" y="225" width="270" height="255" as="geometry">
            <mxRectangle x="1710" y="225" width="70" height="30" as="alternateBounds" />
          </mxGeometry>
        </mxCell>
        <mxCell id="F6VNp0IMm9RkLIZq4vwl-10" value="" style="shape=tableRow;horizontal=0;startSize=0;swimlaneHead=0;swimlaneBody=0;fillColor=none;collapsible=0;dropTarget=0;points=[[0,0.5],[1,0.5]];portConstraint=eastwest;top=0;left=0;right=0;bottom=0;" parent="F6VNp0IMm9RkLIZq4vwl-9" vertex="1">
          <mxGeometry y="30" width="270" height="30" as="geometry" />
        </mxCell>
        <mxCell id="F6VNp0IMm9RkLIZq4vwl-11" value="Methods" style="shape=partialRectangle;connectable=0;fillColor=none;top=0;left=0;bottom=0;right=0;fontStyle=1;overflow=hidden;" parent="F6VNp0IMm9RkLIZq4vwl-10" vertex="1">
          <mxGeometry width="60" height="30" as="geometry">
            <mxRectangle width="60" height="30" as="alternateBounds" />
          </mxGeometry>
        </mxCell>
        <mxCell id="F6VNp0IMm9RkLIZq4vwl-12" value="GetValue -&gt; float&#xa;&#xa;GetPossibleMoves -&gt; List&lt;Moves&gt;" style="shape=partialRectangle;connectable=0;fillColor=none;top=0;left=0;bottom=0;right=0;align=left;spacingLeft=6;fontStyle=5;overflow=hidden;" parent="F6VNp0IMm9RkLIZq4vwl-10" vertex="1">
          <mxGeometry x="60" width="210" height="30" as="geometry">
            <mxRectangle width="210" height="30" as="alternateBounds" />
          </mxGeometry>
        </mxCell>
        <mxCell id="F6VNp0IMm9RkLIZq4vwl-13" value="" style="shape=tableRow;horizontal=0;startSize=0;swimlaneHead=0;swimlaneBody=0;fillColor=none;collapsible=0;dropTarget=0;points=[[0,0.5],[1,0.5]];portConstraint=eastwest;top=0;left=0;right=0;bottom=1;" parent="F6VNp0IMm9RkLIZq4vwl-9" vertex="1">
          <mxGeometry y="60" width="270" height="65" as="geometry" />
        </mxCell>
        <mxCell id="F6VNp0IMm9RkLIZq4vwl-14" value="" style="shape=partialRectangle;connectable=0;fillColor=none;top=0;left=0;bottom=0;right=0;fontStyle=1;overflow=hidden;" parent="F6VNp0IMm9RkLIZq4vwl-13" vertex="1">
          <mxGeometry width="60" height="65" as="geometry">
            <mxRectangle width="60" height="65" as="alternateBounds" />
          </mxGeometry>
        </mxCell>
        <mxCell id="F6VNp0IMm9RkLIZq4vwl-15" value="GetPossibleMoves -&gt; List&lt;Moves&gt;" style="shape=partialRectangle;connectable=0;fillColor=none;top=0;left=0;bottom=0;right=0;align=left;spacingLeft=6;fontStyle=5;overflow=hidden;" parent="F6VNp0IMm9RkLIZq4vwl-13" vertex="1">
          <mxGeometry x="60" width="210" height="65" as="geometry">
            <mxRectangle width="210" height="65" as="alternateBounds" />
          </mxGeometry>
        </mxCell>
        <mxCell id="F6VNp0IMm9RkLIZq4vwl-22" style="shape=tableRow;horizontal=0;startSize=0;swimlaneHead=0;swimlaneBody=0;fillColor=none;collapsible=0;dropTarget=0;points=[[0,0.5],[1,0.5]];portConstraint=eastwest;top=0;left=0;right=0;bottom=1;" parent="F6VNp0IMm9RkLIZq4vwl-9" vertex="1">
          <mxGeometry y="125" width="270" height="65" as="geometry" />
        </mxCell>
        <mxCell id="F6VNp0IMm9RkLIZq4vwl-23" value="Data" style="shape=partialRectangle;connectable=0;fillColor=none;top=0;left=0;bottom=0;right=0;fontStyle=1;overflow=hidden;" parent="F6VNp0IMm9RkLIZq4vwl-22" vertex="1">
          <mxGeometry width="60" height="65" as="geometry">
            <mxRectangle width="60" height="65" as="alternateBounds" />
          </mxGeometry>
        </mxCell>
        <mxCell id="F6VNp0IMm9RkLIZq4vwl-24" value="Position -&gt; Vector2Int&#xa;&#xa;Custom Data (e.g. HasMoved)" style="shape=partialRectangle;connectable=0;fillColor=none;top=0;left=0;bottom=0;right=0;align=left;spacingLeft=6;fontStyle=5;overflow=hidden;" parent="F6VNp0IMm9RkLIZq4vwl-22" vertex="1">
          <mxGeometry x="60" width="210" height="65" as="geometry">
            <mxRectangle width="210" height="65" as="alternateBounds" />
          </mxGeometry>
        </mxCell>
        <mxCell id="F6VNp0IMm9RkLIZq4vwl-16" value="" style="shape=tableRow;horizontal=0;startSize=0;swimlaneHead=0;swimlaneBody=0;fillColor=none;collapsible=0;dropTarget=0;points=[[0,0.5],[1,0.5]];portConstraint=eastwest;top=0;left=0;right=0;bottom=0;" parent="F6VNp0IMm9RkLIZq4vwl-9" vertex="1">
          <mxGeometry y="190" width="270" height="30" as="geometry" />
        </mxCell>
        <mxCell id="F6VNp0IMm9RkLIZq4vwl-17" value="" style="shape=partialRectangle;connectable=0;fillColor=none;top=0;left=0;bottom=0;right=0;editable=1;overflow=hidden;" parent="F6VNp0IMm9RkLIZq4vwl-16" vertex="1">
          <mxGeometry width="60" height="30" as="geometry">
            <mxRectangle width="60" height="30" as="alternateBounds" />
          </mxGeometry>
        </mxCell>
        <mxCell id="F6VNp0IMm9RkLIZq4vwl-18" value="" style="shape=partialRectangle;connectable=0;fillColor=none;top=0;left=0;bottom=0;right=0;align=left;spacingLeft=6;overflow=hidden;" parent="F6VNp0IMm9RkLIZq4vwl-16" vertex="1">
          <mxGeometry x="60" width="210" height="30" as="geometry">
            <mxRectangle width="210" height="30" as="alternateBounds" />
          </mxGeometry>
        </mxCell>
        <mxCell id="F6VNp0IMm9RkLIZq4vwl-19" value="" style="shape=tableRow;horizontal=0;startSize=0;swimlaneHead=0;swimlaneBody=0;fillColor=none;collapsible=0;dropTarget=0;points=[[0,0.5],[1,0.5]];portConstraint=eastwest;top=0;left=0;right=0;bottom=0;" parent="F6VNp0IMm9RkLIZq4vwl-9" vertex="1">
          <mxGeometry y="220" width="270" height="30" as="geometry" />
        </mxCell>
        <mxCell id="F6VNp0IMm9RkLIZq4vwl-20" value="" style="shape=partialRectangle;connectable=0;fillColor=none;top=0;left=0;bottom=0;right=0;editable=1;overflow=hidden;" parent="F6VNp0IMm9RkLIZq4vwl-19" vertex="1">
          <mxGeometry width="60" height="30" as="geometry">
            <mxRectangle width="60" height="30" as="alternateBounds" />
          </mxGeometry>
        </mxCell>
        <mxCell id="F6VNp0IMm9RkLIZq4vwl-21" value="" style="shape=partialRectangle;connectable=0;fillColor=none;top=0;left=0;bottom=0;right=0;align=left;spacingLeft=6;overflow=hidden;" parent="F6VNp0IMm9RkLIZq4vwl-19" vertex="1">
          <mxGeometry x="60" width="210" height="30" as="geometry">
            <mxRectangle width="210" height="30" as="alternateBounds" />
          </mxGeometry>
        </mxCell>
        <mxCell id="F6VNp0IMm9RkLIZq4vwl-25" style="edgeStyle=none;rounded=0;orthogonalLoop=1;jettySize=auto;html=1;exitX=0.5;exitY=1;exitDx=0;exitDy=0;entryX=0.5;entryY=0;entryDx=0;entryDy=0;" parent="1" source="F6VNp0IMm9RkLIZq4vwl-28" target="F6VNp0IMm9RkLIZq4vwl-29" edge="1">
          <mxGeometry relative="1" as="geometry" />
        </mxCell>
        <mxCell id="F6VNp0IMm9RkLIZq4vwl-26" style="edgeStyle=none;rounded=0;orthogonalLoop=1;jettySize=auto;html=1;exitX=0.5;exitY=1;exitDx=0;exitDy=0;entryX=0.5;entryY=0;entryDx=0;entryDy=0;" parent="1" source="F6VNp0IMm9RkLIZq4vwl-28" target="F6VNp0IMm9RkLIZq4vwl-30" edge="1">
          <mxGeometry relative="1" as="geometry" />
        </mxCell>
        <mxCell id="F6VNp0IMm9RkLIZq4vwl-27" style="edgeStyle=none;rounded=0;orthogonalLoop=1;jettySize=auto;html=1;exitX=0.5;exitY=1;exitDx=0;exitDy=0;entryX=0.5;entryY=0;entryDx=0;entryDy=0;" parent="1" source="F6VNp0IMm9RkLIZq4vwl-28" target="F6VNp0IMm9RkLIZq4vwl-31" edge="1">
          <mxGeometry relative="1" as="geometry" />
        </mxCell>
        <mxCell id="F6VNp0IMm9RkLIZq4vwl-28" value="Board (Abstract)" style="rounded=1;whiteSpace=wrap;html=1;fillColor=#d5e8d4;strokeColor=#82b366;" parent="1" vertex="1">
          <mxGeometry x="1795" y="530" width="100" height="30" as="geometry" />
        </mxCell>
        <mxCell id="F6VNp0IMm9RkLIZq4vwl-29" value="Default" style="rounded=1;whiteSpace=wrap;html=1;" parent="1" vertex="1">
          <mxGeometry x="1665" y="615" width="100" height="30" as="geometry" />
        </mxCell>
        <mxCell id="F6VNp0IMm9RkLIZq4vwl-30" value="NineByNine" style="rounded=1;whiteSpace=wrap;html=1;" parent="1" vertex="1">
          <mxGeometry x="1795" y="615" width="100" height="30" as="geometry" />
        </mxCell>
        <mxCell id="F6VNp0IMm9RkLIZq4vwl-31" value="..." style="rounded=1;whiteSpace=wrap;html=1;" parent="1" vertex="1">
          <mxGeometry x="1915" y="615" width="100" height="30" as="geometry" />
        </mxCell>
        <mxCell id="F6VNp0IMm9RkLIZq4vwl-32" value="Board (Abstract)" style="shape=table;startSize=30;container=1;collapsible=1;childLayout=tableLayout;fixedRows=1;rowLines=0;fontStyle=1;align=center;resizeLast=1;" parent="1" vertex="1">
          <mxGeometry x="1700" y="737.5" width="324" height="255" as="geometry">
            <mxRectangle x="1710" y="225" width="70" height="30" as="alternateBounds" />
          </mxGeometry>
        </mxCell>
        <mxCell id="F6VNp0IMm9RkLIZq4vwl-33" value="" style="shape=tableRow;horizontal=0;startSize=0;swimlaneHead=0;swimlaneBody=0;fillColor=none;collapsible=0;dropTarget=0;points=[[0,0.5],[1,0.5]];portConstraint=eastwest;top=0;left=0;right=0;bottom=0;" parent="F6VNp0IMm9RkLIZq4vwl-32" vertex="1">
          <mxGeometry y="30" width="324" height="30" as="geometry" />
        </mxCell>
        <mxCell id="F6VNp0IMm9RkLIZq4vwl-34" value="Methods" style="shape=partialRectangle;connectable=0;fillColor=none;top=0;left=0;bottom=0;right=0;fontStyle=1;overflow=hidden;" parent="F6VNp0IMm9RkLIZq4vwl-33" vertex="1">
          <mxGeometry width="60" height="30" as="geometry">
            <mxRectangle width="60" height="30" as="alternateBounds" />
          </mxGeometry>
        </mxCell>
        <mxCell id="F6VNp0IMm9RkLIZq4vwl-35" value="GetPossibleMoves(player) -&gt; List&lt;Moves&gt;" style="shape=partialRectangle;connectable=0;fillColor=none;top=0;left=0;bottom=0;right=0;align=left;spacingLeft=6;fontStyle=5;overflow=hidden;" parent="F6VNp0IMm9RkLIZq4vwl-33" vertex="1">
          <mxGeometry x="60" width="264" height="30" as="geometry">
            <mxRectangle width="264" height="30" as="alternateBounds" />
          </mxGeometry>
        </mxCell>
        <mxCell id="F6VNp0IMm9RkLIZq4vwl-36" value="" style="shape=tableRow;horizontal=0;startSize=0;swimlaneHead=0;swimlaneBody=0;fillColor=none;collapsible=0;dropTarget=0;points=[[0,0.5],[1,0.5]];portConstraint=eastwest;top=0;left=0;right=0;bottom=1;" parent="F6VNp0IMm9RkLIZq4vwl-32" vertex="1">
          <mxGeometry y="60" width="324" height="65" as="geometry" />
        </mxCell>
        <mxCell id="F6VNp0IMm9RkLIZq4vwl-37" value="" style="shape=partialRectangle;connectable=0;fillColor=none;top=0;left=0;bottom=0;right=0;fontStyle=1;overflow=hidden;" parent="F6VNp0IMm9RkLIZq4vwl-36" vertex="1">
          <mxGeometry width="60" height="65" as="geometry">
            <mxRectangle width="60" height="65" as="alternateBounds" />
          </mxGeometry>
        </mxCell>
        <mxCell id="F6VNp0IMm9RkLIZq4vwl-38" value="OnMove(Move)" style="shape=partialRectangle;connectable=0;fillColor=none;top=0;left=0;bottom=0;right=0;align=left;spacingLeft=6;fontStyle=5;overflow=hidden;" parent="F6VNp0IMm9RkLIZq4vwl-36" vertex="1">
          <mxGeometry x="60" width="264" height="65" as="geometry">
            <mxRectangle width="264" height="65" as="alternateBounds" />
          </mxGeometry>
        </mxCell>
        <mxCell id="F6VNp0IMm9RkLIZq4vwl-39" style="shape=tableRow;horizontal=0;startSize=0;swimlaneHead=0;swimlaneBody=0;fillColor=none;collapsible=0;dropTarget=0;points=[[0,0.5],[1,0.5]];portConstraint=eastwest;top=0;left=0;right=0;bottom=1;" parent="F6VNp0IMm9RkLIZq4vwl-32" vertex="1">
          <mxGeometry y="125" width="324" height="65" as="geometry" />
        </mxCell>
        <mxCell id="F6VNp0IMm9RkLIZq4vwl-40" value="Data" style="shape=partialRectangle;connectable=0;fillColor=none;top=0;left=0;bottom=0;right=0;fontStyle=1;overflow=hidden;" parent="F6VNp0IMm9RkLIZq4vwl-39" vertex="1">
          <mxGeometry width="60" height="65" as="geometry">
            <mxRectangle width="60" height="65" as="alternateBounds" />
          </mxGeometry>
        </mxCell>
        <mxCell id="F6VNp0IMm9RkLIZq4vwl-41" value="Board -&gt; Piece[][]&#xa;&#xa;CustomData (e.g. trapdoor open)" style="shape=partialRectangle;connectable=0;fillColor=none;top=0;left=0;bottom=0;right=0;align=left;spacingLeft=6;fontStyle=5;overflow=hidden;" parent="F6VNp0IMm9RkLIZq4vwl-39" vertex="1">
          <mxGeometry x="60" width="264" height="65" as="geometry">
            <mxRectangle width="264" height="65" as="alternateBounds" />
          </mxGeometry>
        </mxCell>
        <mxCell id="F6VNp0IMm9RkLIZq4vwl-42" value="" style="shape=tableRow;horizontal=0;startSize=0;swimlaneHead=0;swimlaneBody=0;fillColor=none;collapsible=0;dropTarget=0;points=[[0,0.5],[1,0.5]];portConstraint=eastwest;top=0;left=0;right=0;bottom=0;" parent="F6VNp0IMm9RkLIZq4vwl-32" vertex="1">
          <mxGeometry y="190" width="324" height="30" as="geometry" />
        </mxCell>
        <mxCell id="F6VNp0IMm9RkLIZq4vwl-43" value="" style="shape=partialRectangle;connectable=0;fillColor=none;top=0;left=0;bottom=0;right=0;editable=1;overflow=hidden;" parent="F6VNp0IMm9RkLIZq4vwl-42" vertex="1">
          <mxGeometry width="60" height="30" as="geometry">
            <mxRectangle width="60" height="30" as="alternateBounds" />
          </mxGeometry>
        </mxCell>
        <mxCell id="F6VNp0IMm9RkLIZq4vwl-44" value="" style="shape=partialRectangle;connectable=0;fillColor=none;top=0;left=0;bottom=0;right=0;align=left;spacingLeft=6;overflow=hidden;" parent="F6VNp0IMm9RkLIZq4vwl-42" vertex="1">
          <mxGeometry x="60" width="264" height="30" as="geometry">
            <mxRectangle width="264" height="30" as="alternateBounds" />
          </mxGeometry>
        </mxCell>
        <mxCell id="F6VNp0IMm9RkLIZq4vwl-45" value="" style="shape=tableRow;horizontal=0;startSize=0;swimlaneHead=0;swimlaneBody=0;fillColor=none;collapsible=0;dropTarget=0;points=[[0,0.5],[1,0.5]];portConstraint=eastwest;top=0;left=0;right=0;bottom=0;" parent="F6VNp0IMm9RkLIZq4vwl-32" vertex="1">
          <mxGeometry y="220" width="324" height="30" as="geometry" />
        </mxCell>
        <mxCell id="F6VNp0IMm9RkLIZq4vwl-46" value="" style="shape=partialRectangle;connectable=0;fillColor=none;top=0;left=0;bottom=0;right=0;editable=1;overflow=hidden;" parent="F6VNp0IMm9RkLIZq4vwl-45" vertex="1">
          <mxGeometry width="60" height="30" as="geometry">
            <mxRectangle width="60" height="30" as="alternateBounds" />
          </mxGeometry>
        </mxCell>
        <mxCell id="F6VNp0IMm9RkLIZq4vwl-47" value="" style="shape=partialRectangle;connectable=0;fillColor=none;top=0;left=0;bottom=0;right=0;align=left;spacingLeft=6;overflow=hidden;" parent="F6VNp0IMm9RkLIZq4vwl-45" vertex="1">
          <mxGeometry x="60" width="264" height="30" as="geometry">
            <mxRectangle width="264" height="30" as="alternateBounds" />
          </mxGeometry>
        </mxCell>
        <mxCell id="F6VNp0IMm9RkLIZq4vwl-71" style="edgeStyle=none;rounded=0;orthogonalLoop=1;jettySize=auto;html=1;exitX=0.5;exitY=1;exitDx=0;exitDy=0;entryX=0.5;entryY=0;entryDx=0;entryDy=0;" parent="1" source="F6VNp0IMm9RkLIZq4vwl-74" target="F6VNp0IMm9RkLIZq4vwl-75" edge="1">
          <mxGeometry relative="1" as="geometry" />
        </mxCell>
        <mxCell id="F6VNp0IMm9RkLIZq4vwl-72" style="edgeStyle=none;rounded=0;orthogonalLoop=1;jettySize=auto;html=1;exitX=0.5;exitY=1;exitDx=0;exitDy=0;entryX=0.5;entryY=0;entryDx=0;entryDy=0;" parent="1" source="F6VNp0IMm9RkLIZq4vwl-74" target="F6VNp0IMm9RkLIZq4vwl-76" edge="1">
          <mxGeometry relative="1" as="geometry" />
        </mxCell>
        <mxCell id="F6VNp0IMm9RkLIZq4vwl-73" style="edgeStyle=none;rounded=0;orthogonalLoop=1;jettySize=auto;html=1;exitX=0.5;exitY=1;exitDx=0;exitDy=0;entryX=0.5;entryY=0;entryDx=0;entryDy=0;" parent="1" source="F6VNp0IMm9RkLIZq4vwl-74" target="F6VNp0IMm9RkLIZq4vwl-77" edge="1">
          <mxGeometry relative="1" as="geometry" />
        </mxCell>
        <mxCell id="F6VNp0IMm9RkLIZq4vwl-74" value="Game Manager(Abstract)" style="rounded=1;whiteSpace=wrap;html=1;fillColor=#d5e8d4;strokeColor=#82b366;" parent="1" vertex="1">
          <mxGeometry x="1812.5" y="1070" width="100" height="30" as="geometry" />
        </mxCell>
        <mxCell id="F6VNp0IMm9RkLIZq4vwl-75" value="Default" style="rounded=1;whiteSpace=wrap;html=1;" parent="1" vertex="1">
          <mxGeometry x="1682.5" y="1155" width="100" height="30" as="geometry" />
        </mxCell>
        <mxCell id="F6VNp0IMm9RkLIZq4vwl-76" value="AtomicChess" style="rounded=1;whiteSpace=wrap;html=1;" parent="1" vertex="1">
          <mxGeometry x="1812.5" y="1155" width="100" height="30" as="geometry" />
        </mxCell>
        <mxCell id="F6VNp0IMm9RkLIZq4vwl-77" value="..." style="rounded=1;whiteSpace=wrap;html=1;" parent="1" vertex="1">
          <mxGeometry x="1932.5" y="1155" width="100" height="30" as="geometry" />
        </mxCell>
        <mxCell id="F6VNp0IMm9RkLIZq4vwl-78" value="Game Manager (Abstract)" style="shape=table;startSize=30;container=1;collapsible=1;childLayout=tableLayout;fixedRows=1;rowLines=0;fontStyle=1;align=center;resizeLast=1;" parent="1" vertex="1">
          <mxGeometry x="1717.5" y="1277.5" width="324" height="305" as="geometry">
            <mxRectangle x="1710" y="225" width="70" height="30" as="alternateBounds" />
          </mxGeometry>
        </mxCell>
        <mxCell id="F6VNp0IMm9RkLIZq4vwl-79" value="" style="shape=tableRow;horizontal=0;startSize=0;swimlaneHead=0;swimlaneBody=0;fillColor=none;collapsible=0;dropTarget=0;points=[[0,0.5],[1,0.5]];portConstraint=eastwest;top=0;left=0;right=0;bottom=0;" parent="F6VNp0IMm9RkLIZq4vwl-78" vertex="1">
          <mxGeometry y="30" width="324" height="30" as="geometry" />
        </mxCell>
        <mxCell id="F6VNp0IMm9RkLIZq4vwl-80" value="Methods" style="shape=partialRectangle;connectable=0;fillColor=none;top=0;left=0;bottom=0;right=0;fontStyle=1;overflow=hidden;" parent="F6VNp0IMm9RkLIZq4vwl-79" vertex="1">
          <mxGeometry width="60" height="30" as="geometry">
            <mxRectangle width="60" height="30" as="alternateBounds" />
          </mxGeometry>
        </mxCell>
        <mxCell id="F6VNp0IMm9RkLIZq4vwl-81" value="GetPossibleMoves(player) -&gt; List&lt;Moves&gt;" style="shape=partialRectangle;connectable=0;fillColor=none;top=0;left=0;bottom=0;right=0;align=left;spacingLeft=6;fontStyle=5;overflow=hidden;" parent="F6VNp0IMm9RkLIZq4vwl-79" vertex="1">
          <mxGeometry x="60" width="264" height="30" as="geometry">
            <mxRectangle width="264" height="30" as="alternateBounds" />
          </mxGeometry>
        </mxCell>
        <mxCell id="F6VNp0IMm9RkLIZq4vwl-82" value="" style="shape=tableRow;horizontal=0;startSize=0;swimlaneHead=0;swimlaneBody=0;fillColor=none;collapsible=0;dropTarget=0;points=[[0,0.5],[1,0.5]];portConstraint=eastwest;top=0;left=0;right=0;bottom=1;" parent="F6VNp0IMm9RkLIZq4vwl-78" vertex="1">
          <mxGeometry y="60" width="324" height="65" as="geometry" />
        </mxCell>
        <mxCell id="F6VNp0IMm9RkLIZq4vwl-83" value="" style="shape=partialRectangle;connectable=0;fillColor=none;top=0;left=0;bottom=0;right=0;fontStyle=1;overflow=hidden;" parent="F6VNp0IMm9RkLIZq4vwl-82" vertex="1">
          <mxGeometry width="60" height="65" as="geometry">
            <mxRectangle width="60" height="65" as="alternateBounds" />
          </mxGeometry>
        </mxCell>
        <mxCell id="F6VNp0IMm9RkLIZq4vwl-84" value="OnMove(Move)" style="shape=partialRectangle;connectable=0;fillColor=none;top=0;left=0;bottom=0;right=0;align=left;spacingLeft=6;fontStyle=5;overflow=hidden;" parent="F6VNp0IMm9RkLIZq4vwl-82" vertex="1">
          <mxGeometry x="60" width="264" height="65" as="geometry">
            <mxRectangle width="264" height="65" as="alternateBounds" />
          </mxGeometry>
        </mxCell>
        <mxCell id="F6VNp0IMm9RkLIZq4vwl-85" style="shape=tableRow;horizontal=0;startSize=0;swimlaneHead=0;swimlaneBody=0;fillColor=none;collapsible=0;dropTarget=0;points=[[0,0.5],[1,0.5]];portConstraint=eastwest;top=0;left=0;right=0;bottom=1;" parent="F6VNp0IMm9RkLIZq4vwl-78" vertex="1">
          <mxGeometry y="125" width="324" height="88" as="geometry" />
        </mxCell>
        <mxCell id="F6VNp0IMm9RkLIZq4vwl-86" value="Data" style="shape=partialRectangle;connectable=0;fillColor=none;top=0;left=0;bottom=0;right=0;fontStyle=1;overflow=hidden;" parent="F6VNp0IMm9RkLIZq4vwl-85" vertex="1">
          <mxGeometry width="60" height="88" as="geometry">
            <mxRectangle width="60" height="88" as="alternateBounds" />
          </mxGeometry>
        </mxCell>
        <mxCell id="F6VNp0IMm9RkLIZq4vwl-87" value="Board -&gt; Board&#xa;&#xa;CurrentTurn -&gt; int&#xa;&#xa;CustomData (e.g. skip next turn)" style="shape=partialRectangle;connectable=0;fillColor=none;top=0;left=0;bottom=0;right=0;align=left;spacingLeft=6;fontStyle=5;overflow=hidden;" parent="F6VNp0IMm9RkLIZq4vwl-85" vertex="1">
          <mxGeometry x="60" width="264" height="88" as="geometry">
            <mxRectangle width="264" height="88" as="alternateBounds" />
          </mxGeometry>
        </mxCell>
        <mxCell id="F6VNp0IMm9RkLIZq4vwl-88" value="" style="shape=tableRow;horizontal=0;startSize=0;swimlaneHead=0;swimlaneBody=0;fillColor=none;collapsible=0;dropTarget=0;points=[[0,0.5],[1,0.5]];portConstraint=eastwest;top=0;left=0;right=0;bottom=0;" parent="F6VNp0IMm9RkLIZq4vwl-78" vertex="1">
          <mxGeometry y="213" width="324" height="30" as="geometry" />
        </mxCell>
        <mxCell id="F6VNp0IMm9RkLIZq4vwl-89" value="" style="shape=partialRectangle;connectable=0;fillColor=none;top=0;left=0;bottom=0;right=0;editable=1;overflow=hidden;" parent="F6VNp0IMm9RkLIZq4vwl-88" vertex="1">
          <mxGeometry width="60" height="30" as="geometry">
            <mxRectangle width="60" height="30" as="alternateBounds" />
          </mxGeometry>
        </mxCell>
        <mxCell id="F6VNp0IMm9RkLIZq4vwl-90" value="" style="shape=partialRectangle;connectable=0;fillColor=none;top=0;left=0;bottom=0;right=0;align=left;spacingLeft=6;overflow=hidden;" parent="F6VNp0IMm9RkLIZq4vwl-88" vertex="1">
          <mxGeometry x="60" width="264" height="30" as="geometry">
            <mxRectangle width="264" height="30" as="alternateBounds" />
          </mxGeometry>
        </mxCell>
        <mxCell id="F6VNp0IMm9RkLIZq4vwl-91" value="" style="shape=tableRow;horizontal=0;startSize=0;swimlaneHead=0;swimlaneBody=0;fillColor=none;collapsible=0;dropTarget=0;points=[[0,0.5],[1,0.5]];portConstraint=eastwest;top=0;left=0;right=0;bottom=0;" parent="F6VNp0IMm9RkLIZq4vwl-78" vertex="1">
          <mxGeometry y="243" width="324" height="30" as="geometry" />
        </mxCell>
        <mxCell id="F6VNp0IMm9RkLIZq4vwl-92" value="" style="shape=partialRectangle;connectable=0;fillColor=none;top=0;left=0;bottom=0;right=0;editable=1;overflow=hidden;" parent="F6VNp0IMm9RkLIZq4vwl-91" vertex="1">
          <mxGeometry width="60" height="30" as="geometry">
            <mxRectangle width="60" height="30" as="alternateBounds" />
          </mxGeometry>
        </mxCell>
        <mxCell id="F6VNp0IMm9RkLIZq4vwl-93" value="" style="shape=partialRectangle;connectable=0;fillColor=none;top=0;left=0;bottom=0;right=0;align=left;spacingLeft=6;overflow=hidden;" parent="F6VNp0IMm9RkLIZq4vwl-91" vertex="1">
          <mxGeometry x="60" width="264" height="30" as="geometry">
            <mxRectangle width="264" height="30" as="alternateBounds" />
          </mxGeometry>
        </mxCell>
        <mxCell id="JPclPJs4V-d2D48pkDNT-1" value="&lt;h1&gt;&lt;span style=&quot;background-color: initial;&quot;&gt;Board Renderer&lt;/span&gt;&lt;/h1&gt;&lt;h1&gt;&lt;span style=&quot;font-size: 12px; font-weight: 400;&quot;&gt;Will handle displaying the board and current pieces on it&lt;/span&gt;&lt;/h1&gt;&lt;p&gt;&lt;/p&gt;&lt;p&gt;&lt;/p&gt;" style="text;html=1;strokeColor=none;fillColor=none;spacing=5;spacingTop=-20;whiteSpace=wrap;overflow=hidden;rounded=0;" parent="1" vertex="1">
          <mxGeometry x="1241" y="830" width="300" height="230" as="geometry" />
        </mxCell>
        <mxCell id="txeY-TmiMxLKm7RGeQa2-1" value="Local Play" style="rounded=0;whiteSpace=wrap;html=1;fillColor=#d5e8d4;strokeColor=#82b366;" parent="1" vertex="1">
          <mxGeometry x="910" y="60" width="90" height="30" as="geometry" />
        </mxCell>
      </root>
    </mxGraphModel>
  </diagram>
  <diagram id="1KGhgWEiwoOlCOl0gv_L" name="Chess Manager">
    <mxGraphModel dx="1874" dy="1965" grid="1" gridSize="10" guides="1" tooltips="1" connect="1" arrows="1" fold="1" page="1" pageScale="1" pageWidth="827" pageHeight="1169" math="0" shadow="0">
      <root>
        <mxCell id="0" />
        <mxCell id="1" parent="0" />
        <mxCell id="tQHZW5lbPTIPejT4S1jD-1" value="Main Menu" style="text;html=1;strokeColor=none;fillColor=none;align=center;verticalAlign=middle;whiteSpace=wrap;rounded=0;fontSize=27;fontStyle=1" parent="1" vertex="1">
          <mxGeometry x="313" y="-1140" width="201" height="30" as="geometry" />
        </mxCell>
        <mxCell id="tQHZW5lbPTIPejT4S1jD-2" value="In Game" style="text;html=1;strokeColor=none;fillColor=none;align=center;verticalAlign=middle;whiteSpace=wrap;rounded=0;fontSize=27;fontStyle=1" parent="1" vertex="1">
          <mxGeometry x="313" y="-120" width="201" height="30" as="geometry" />
        </mxCell>
        <mxCell id="tQHZW5lbPTIPejT4S1jD-5" style="edgeStyle=orthogonalEdgeStyle;rounded=0;orthogonalLoop=1;jettySize=auto;html=1;exitX=0;exitY=0;exitDx=0;exitDy=0;entryX=1;entryY=0.75;entryDx=0;entryDy=0;fontSize=12;fillColor=#d5e8d4;strokeColor=#82b366;" parent="1" source="tQHZW5lbPTIPejT4S1jD-3" target="tQHZW5lbPTIPejT4S1jD-4" edge="1">
          <mxGeometry relative="1" as="geometry" />
        </mxCell>
        <mxCell id="tQHZW5lbPTIPejT4S1jD-7" style="edgeStyle=orthogonalEdgeStyle;rounded=0;orthogonalLoop=1;jettySize=auto;html=1;exitX=1;exitY=0;exitDx=0;exitDy=0;fontSize=12;entryX=0;entryY=0.75;entryDx=0;entryDy=0;fillColor=#d5e8d4;strokeColor=#82b366;" parent="1" source="tQHZW5lbPTIPejT4S1jD-3" target="tQHZW5lbPTIPejT4S1jD-6" edge="1">
          <mxGeometry relative="1" as="geometry">
            <mxPoint x="510" y="-1020" as="targetPoint" />
          </mxGeometry>
        </mxCell>
        <mxCell id="tQHZW5lbPTIPejT4S1jD-9" style="edgeStyle=orthogonalEdgeStyle;rounded=0;orthogonalLoop=1;jettySize=auto;html=1;exitX=1;exitY=1;exitDx=0;exitDy=0;entryX=0;entryY=0.5;entryDx=0;entryDy=0;fontSize=12;fillColor=#d5e8d4;strokeColor=#82b366;" parent="1" source="tQHZW5lbPTIPejT4S1jD-3" target="tQHZW5lbPTIPejT4S1jD-8" edge="1">
          <mxGeometry relative="1" as="geometry" />
        </mxCell>
        <mxCell id="tQHZW5lbPTIPejT4S1jD-3" value="&lt;font style=&quot;font-size: 12px;&quot;&gt;Chess Manager&lt;/font&gt;" style="rounded=1;whiteSpace=wrap;html=1;fontSize=27;fillColor=#d5e8d4;strokeColor=#82b366;" parent="1" vertex="1">
          <mxGeometry x="354" y="-1000" width="120" height="60" as="geometry" />
        </mxCell>
        <mxCell id="tQHZW5lbPTIPejT4S1jD-4" value="MenuUIManager" style="rounded=0;whiteSpace=wrap;html=1;fontSize=12;fillColor=#d5e8d4;strokeColor=#82b366;" parent="1" vertex="1">
          <mxGeometry x="130" y="-1080" width="120" height="60" as="geometry" />
        </mxCell>
        <mxCell id="tQHZW5lbPTIPejT4S1jD-6" value="NetworkManager" style="rounded=0;whiteSpace=wrap;html=1;fontSize=12;fillColor=#d5e8d4;strokeColor=#82b366;" parent="1" vertex="1">
          <mxGeometry x="580" y="-1080" width="120" height="60" as="geometry" />
        </mxCell>
        <mxCell id="tQHZW5lbPTIPejT4S1jD-8" value="Game Manager (Data only)" style="rounded=0;whiteSpace=wrap;html=1;fontSize=12;fillColor=#d5e8d4;strokeColor=#82b366;" parent="1" vertex="1">
          <mxGeometry x="580" y="-940" width="120" height="60" as="geometry" />
        </mxCell>
        <mxCell id="tQHZW5lbPTIPejT4S1jD-11" style="edgeStyle=orthogonalEdgeStyle;rounded=0;orthogonalLoop=1;jettySize=auto;html=1;exitX=1;exitY=0;exitDx=0;exitDy=0;fontSize=12;entryX=0;entryY=0.75;entryDx=0;entryDy=0;fillColor=#d5e8d4;strokeColor=#82b366;" parent="1" source="tQHZW5lbPTIPejT4S1jD-13" target="tQHZW5lbPTIPejT4S1jD-15" edge="1">
          <mxGeometry relative="1" as="geometry">
            <mxPoint x="509" y="-540" as="targetPoint" />
          </mxGeometry>
        </mxCell>
        <mxCell id="tQHZW5lbPTIPejT4S1jD-12" style="edgeStyle=orthogonalEdgeStyle;rounded=0;orthogonalLoop=1;jettySize=auto;html=1;exitX=1;exitY=1;exitDx=0;exitDy=0;entryX=0;entryY=0.5;entryDx=0;entryDy=0;fontSize=12;fillColor=#d5e8d4;strokeColor=#82b366;" parent="1" source="tQHZW5lbPTIPejT4S1jD-13" target="tQHZW5lbPTIPejT4S1jD-16" edge="1">
          <mxGeometry relative="1" as="geometry" />
        </mxCell>
        <mxCell id="tQHZW5lbPTIPejT4S1jD-18" style="edgeStyle=orthogonalEdgeStyle;rounded=0;orthogonalLoop=1;jettySize=auto;html=1;exitX=0.5;exitY=1;exitDx=0;exitDy=0;entryX=0.5;entryY=0;entryDx=0;entryDy=0;fontSize=12;fillColor=#d5e8d4;strokeColor=#82b366;" parent="1" source="tQHZW5lbPTIPejT4S1jD-13" target="tQHZW5lbPTIPejT4S1jD-17" edge="1">
          <mxGeometry relative="1" as="geometry" />
        </mxCell>
        <mxCell id="tQHZW5lbPTIPejT4S1jD-20" style="edgeStyle=orthogonalEdgeStyle;rounded=0;orthogonalLoop=1;jettySize=auto;html=1;exitX=0;exitY=1;exitDx=0;exitDy=0;entryX=1;entryY=0.5;entryDx=0;entryDy=0;fontSize=12;fillColor=#d5e8d4;strokeColor=#82b366;" parent="1" source="tQHZW5lbPTIPejT4S1jD-13" target="tQHZW5lbPTIPejT4S1jD-19" edge="1">
          <mxGeometry relative="1" as="geometry" />
        </mxCell>
        <mxCell id="tQHZW5lbPTIPejT4S1jD-22" style="edgeStyle=orthogonalEdgeStyle;rounded=0;orthogonalLoop=1;jettySize=auto;html=1;exitX=0;exitY=0.5;exitDx=0;exitDy=0;entryX=1;entryY=0.5;entryDx=0;entryDy=0;fontSize=12;fillColor=#d5e8d4;strokeColor=#82b366;" parent="1" source="tQHZW5lbPTIPejT4S1jD-13" target="tQHZW5lbPTIPejT4S1jD-21" edge="1">
          <mxGeometry relative="1" as="geometry" />
        </mxCell>
        <mxCell id="LnCoWnQslzhM3obVT0NA-2" style="edgeStyle=orthogonalEdgeStyle;rounded=0;orthogonalLoop=1;jettySize=auto;html=1;exitX=0.5;exitY=0;exitDx=0;exitDy=0;entryX=0.5;entryY=1;entryDx=0;entryDy=0;fillColor=#ffe6cc;strokeColor=#d79b00;" parent="1" source="tQHZW5lbPTIPejT4S1jD-13" target="LnCoWnQslzhM3obVT0NA-1" edge="1">
          <mxGeometry relative="1" as="geometry" />
        </mxCell>
        <mxCell id="tQHZW5lbPTIPejT4S1jD-13" value="&lt;font style=&quot;font-size: 12px;&quot;&gt;Chess Manager&lt;/font&gt;" style="rounded=1;whiteSpace=wrap;html=1;fontSize=27;fillColor=#d5e8d4;strokeColor=#82b366;" parent="1" vertex="1">
          <mxGeometry x="353" y="-520" width="120" height="60" as="geometry" />
        </mxCell>
        <mxCell id="tQHZW5lbPTIPejT4S1jD-15" value="NetworkManager" style="rounded=0;whiteSpace=wrap;html=1;fontSize=12;fillColor=#d5e8d4;strokeColor=#82b366;" parent="1" vertex="1">
          <mxGeometry x="579" y="-600" width="120" height="60" as="geometry" />
        </mxCell>
        <mxCell id="tQHZW5lbPTIPejT4S1jD-16" value="Game Manager (Full Instance)" style="rounded=0;whiteSpace=wrap;html=1;fontSize=12;fillColor=#d5e8d4;strokeColor=#82b366;" parent="1" vertex="1">
          <mxGeometry x="579" y="-460" width="120" height="60" as="geometry" />
        </mxCell>
        <mxCell id="tQHZW5lbPTIPejT4S1jD-17" value="Save Manager" style="rounded=0;whiteSpace=wrap;html=1;fontSize=12;fillColor=#d5e8d4;strokeColor=#82b366;" parent="1" vertex="1">
          <mxGeometry x="353" y="-390" width="120" height="60" as="geometry" />
        </mxCell>
        <mxCell id="tQHZW5lbPTIPejT4S1jD-19" value="Input Manager" style="rounded=0;whiteSpace=wrap;html=1;fontSize=12;fillColor=#d5e8d4;strokeColor=#82b366;" parent="1" vertex="1">
          <mxGeometry x="130" y="-430" width="120" height="60" as="geometry" />
        </mxCell>
        <mxCell id="tQHZW5lbPTIPejT4S1jD-21" value="Board Renderer" style="rounded=0;whiteSpace=wrap;html=1;fontSize=12;fillColor=#d5e8d4;strokeColor=#82b366;" parent="1" vertex="1">
          <mxGeometry x="130" y="-584" width="120" height="60" as="geometry" />
        </mxCell>
        <mxCell id="tQHZW5lbPTIPejT4S1jD-23" value="" style="endArrow=classic;startArrow=classic;html=1;rounded=0;fontSize=12;jumpSize=6;strokeWidth=5;fillColor=#d5e8d4;strokeColor=#82b366;" parent="1" edge="1">
          <mxGeometry width="50" height="50" relative="1" as="geometry">
            <mxPoint x="410" y="-650" as="sourcePoint" />
            <mxPoint x="410" y="-870" as="targetPoint" />
          </mxGeometry>
        </mxCell>
        <mxCell id="LnCoWnQslzhM3obVT0NA-1" value="AIManager" style="rounded=0;whiteSpace=wrap;html=1;fontSize=12;fillColor=#ffe6cc;strokeColor=#d79b00;" parent="1" vertex="1">
          <mxGeometry x="353" y="-630" width="120" height="60" as="geometry" />
        </mxCell>
      </root>
    </mxGraphModel>
  </diagram>
  <diagram id="-zlLjMuEz0oj4CdTzc4r" name="Game Manager">
    <mxGraphModel dx="1562" dy="1832" grid="1" gridSize="10" guides="1" tooltips="1" connect="1" arrows="1" fold="1" page="1" pageScale="1" pageWidth="827" pageHeight="1169" math="0" shadow="0">
      <root>
        <mxCell id="0" />
        <mxCell id="1" parent="0" />
        <mxCell id="FzNHRCO25Q5PvDcUqi0_-5" style="edgeStyle=orthogonalEdgeStyle;rounded=0;jumpSize=6;orthogonalLoop=1;jettySize=auto;html=1;exitX=0.5;exitY=1;exitDx=0;exitDy=0;entryX=0.5;entryY=0;entryDx=0;entryDy=0;strokeWidth=1;fontSize=12;" parent="1" source="FzNHRCO25Q5PvDcUqi0_-1" edge="1">
          <mxGeometry relative="1" as="geometry">
            <mxPoint x="190" y="510" as="targetPoint" />
          </mxGeometry>
        </mxCell>
        <mxCell id="FzNHRCO25Q5PvDcUqi0_-6" style="edgeStyle=orthogonalEdgeStyle;rounded=0;jumpSize=6;orthogonalLoop=1;jettySize=auto;html=1;exitX=0.5;exitY=1;exitDx=0;exitDy=0;entryX=0.5;entryY=0;entryDx=0;entryDy=0;strokeWidth=1;fontSize=12;" parent="1" source="FzNHRCO25Q5PvDcUqi0_-1" target="FzNHRCO25Q5PvDcUqi0_-3" edge="1">
          <mxGeometry relative="1" as="geometry" />
        </mxCell>
        <mxCell id="FzNHRCO25Q5PvDcUqi0_-7" style="edgeStyle=orthogonalEdgeStyle;rounded=0;jumpSize=6;orthogonalLoop=1;jettySize=auto;html=1;exitX=0.5;exitY=1;exitDx=0;exitDy=0;entryX=0.5;entryY=0;entryDx=0;entryDy=0;strokeWidth=1;fontSize=12;" parent="1" source="FzNHRCO25Q5PvDcUqi0_-1" target="FzNHRCO25Q5PvDcUqi0_-4" edge="1">
          <mxGeometry relative="1" as="geometry" />
        </mxCell>
        <mxCell id="FzNHRCO25Q5PvDcUqi0_-1" value="Game Manager (Data Only)" style="rounded=0;whiteSpace=wrap;html=1;fontSize=12;fillColor=#d5e8d4;strokeColor=#82b366;" parent="1" vertex="1">
          <mxGeometry x="290" y="400" width="120" height="60" as="geometry" />
        </mxCell>
        <mxCell id="FzNHRCO25Q5PvDcUqi0_-2" value="UID" style="rounded=1;whiteSpace=wrap;html=1;fontSize=12;fillColor=#d5e8d4;strokeColor=#82b366;" parent="1" vertex="1">
          <mxGeometry x="130" y="510" width="120" height="60" as="geometry" />
        </mxCell>
        <mxCell id="FzNHRCO25Q5PvDcUqi0_-3" value="Team Sizes" style="rounded=1;whiteSpace=wrap;html=1;fontSize=12;fillColor=#d5e8d4;strokeColor=#82b366;" parent="1" vertex="1">
          <mxGeometry x="290" y="510" width="120" height="60" as="geometry" />
        </mxCell>
        <mxCell id="FzNHRCO25Q5PvDcUqi0_-4" value="Game mode Name" style="rounded=1;whiteSpace=wrap;html=1;fontSize=12;fillColor=#d5e8d4;strokeColor=#82b366;" parent="1" vertex="1">
          <mxGeometry x="430" y="510" width="120" height="60" as="geometry" />
        </mxCell>
        <mxCell id="FzNHRCO25Q5PvDcUqi0_-9" style="edgeStyle=orthogonalEdgeStyle;rounded=0;jumpSize=6;orthogonalLoop=1;jettySize=auto;html=1;exitX=0.5;exitY=1;exitDx=0;exitDy=0;entryX=0.5;entryY=0;entryDx=0;entryDy=0;strokeWidth=1;fontSize=12;" parent="1" target="FzNHRCO25Q5PvDcUqi0_-1" edge="1">
          <mxGeometry relative="1" as="geometry">
            <mxPoint x="660" y="320" as="sourcePoint" />
          </mxGeometry>
        </mxCell>
        <mxCell id="FzNHRCO25Q5PvDcUqi0_-11" style="edgeStyle=orthogonalEdgeStyle;rounded=0;jumpSize=6;orthogonalLoop=1;jettySize=auto;html=1;exitX=0.5;exitY=1;exitDx=0;exitDy=0;entryX=0.5;entryY=0;entryDx=0;entryDy=0;strokeWidth=1;fontSize=12;" parent="1" target="FzNHRCO25Q5PvDcUqi0_-10" edge="1">
          <mxGeometry relative="1" as="geometry">
            <mxPoint x="660" y="320" as="sourcePoint" />
          </mxGeometry>
        </mxCell>
        <mxCell id="0c-2BpBRQcX5IneX6j6t-12" style="edgeStyle=orthogonalEdgeStyle;rounded=0;jumpSize=6;orthogonalLoop=1;jettySize=auto;html=1;exitX=0.5;exitY=1;exitDx=0;exitDy=0;strokeWidth=1;fontSize=12;" parent="1" source="FzNHRCO25Q5PvDcUqi0_-8" edge="1">
          <mxGeometry relative="1" as="geometry">
            <mxPoint x="660.1764705882354" y="320" as="targetPoint" />
          </mxGeometry>
        </mxCell>
        <mxCell id="FzNHRCO25Q5PvDcUqi0_-8" value="Game Manager" style="rounded=0;whiteSpace=wrap;html=1;fontSize=12;fillColor=#d5e8d4;strokeColor=#82b366;" parent="1" vertex="1">
          <mxGeometry x="600" y="240" width="120" height="60" as="geometry" />
        </mxCell>
        <mxCell id="FzNHRCO25Q5PvDcUqi0_-14" style="edgeStyle=orthogonalEdgeStyle;rounded=0;jumpSize=6;orthogonalLoop=1;jettySize=auto;html=1;exitX=0.5;exitY=1;exitDx=0;exitDy=0;entryX=0.5;entryY=0;entryDx=0;entryDy=0;strokeWidth=1;fontSize=12;" parent="1" source="FzNHRCO25Q5PvDcUqi0_-10" target="FzNHRCO25Q5PvDcUqi0_-12" edge="1">
          <mxGeometry relative="1" as="geometry" />
        </mxCell>
        <mxCell id="FzNHRCO25Q5PvDcUqi0_-10" value="Board" style="rounded=0;whiteSpace=wrap;html=1;fontSize=12;fillColor=#d5e8d4;strokeColor=#82b366;" parent="1" vertex="1">
          <mxGeometry x="600" y="400" width="120" height="60" as="geometry" />
        </mxCell>
        <mxCell id="FzNHRCO25Q5PvDcUqi0_-12" value="Pieces" style="rounded=0;whiteSpace=wrap;html=1;fontSize=12;fillColor=#d5e8d4;strokeColor=#82b366;" parent="1" vertex="1">
          <mxGeometry x="600" y="510" width="120" height="60" as="geometry" />
        </mxCell>
        <mxCell id="0c-2BpBRQcX5IneX6j6t-1" style="edgeStyle=orthogonalEdgeStyle;rounded=0;orthogonalLoop=1;jettySize=auto;html=1;exitX=1;exitY=0;exitDx=0;exitDy=0;fontSize=12;entryX=0;entryY=0.75;entryDx=0;entryDy=0;" parent="1" source="0c-2BpBRQcX5IneX6j6t-6" target="0c-2BpBRQcX5IneX6j6t-7" edge="1">
          <mxGeometry relative="1" as="geometry">
            <mxPoint x="419" y="60" as="targetPoint" />
          </mxGeometry>
        </mxCell>
        <mxCell id="0c-2BpBRQcX5IneX6j6t-3" style="edgeStyle=orthogonalEdgeStyle;rounded=0;orthogonalLoop=1;jettySize=auto;html=1;exitX=0.5;exitY=1;exitDx=0;exitDy=0;entryX=0.5;entryY=0;entryDx=0;entryDy=0;fontSize=12;" parent="1" source="0c-2BpBRQcX5IneX6j6t-6" target="0c-2BpBRQcX5IneX6j6t-9" edge="1">
          <mxGeometry relative="1" as="geometry" />
        </mxCell>
        <mxCell id="0c-2BpBRQcX5IneX6j6t-4" style="edgeStyle=orthogonalEdgeStyle;rounded=0;orthogonalLoop=1;jettySize=auto;html=1;exitX=0;exitY=1;exitDx=0;exitDy=0;entryX=1;entryY=0.5;entryDx=0;entryDy=0;fontSize=12;" parent="1" source="0c-2BpBRQcX5IneX6j6t-6" target="0c-2BpBRQcX5IneX6j6t-10" edge="1">
          <mxGeometry relative="1" as="geometry" />
        </mxCell>
        <mxCell id="0c-2BpBRQcX5IneX6j6t-5" style="edgeStyle=orthogonalEdgeStyle;rounded=0;orthogonalLoop=1;jettySize=auto;html=1;exitX=0;exitY=0.5;exitDx=0;exitDy=0;entryX=1;entryY=0.5;entryDx=0;entryDy=0;fontSize=12;" parent="1" source="0c-2BpBRQcX5IneX6j6t-6" target="0c-2BpBRQcX5IneX6j6t-11" edge="1">
          <mxGeometry relative="1" as="geometry" />
        </mxCell>
        <mxCell id="0c-2BpBRQcX5IneX6j6t-6" value="&lt;font style=&quot;font-size: 12px;&quot;&gt;Chess Manager&lt;/font&gt;" style="rounded=1;whiteSpace=wrap;html=1;fontSize=27;fillColor=#d5e8d4;strokeColor=#82b366;" parent="1" vertex="1">
          <mxGeometry x="263" y="80" width="120" height="60" as="geometry" />
        </mxCell>
        <mxCell id="0c-2BpBRQcX5IneX6j6t-7" value="NetworkManager" style="rounded=0;whiteSpace=wrap;html=1;fontSize=12;fillColor=#d5e8d4;strokeColor=#82b366;" parent="1" vertex="1">
          <mxGeometry x="489" width="120" height="60" as="geometry" />
        </mxCell>
        <mxCell id="0c-2BpBRQcX5IneX6j6t-9" value="Save Manager" style="rounded=0;whiteSpace=wrap;html=1;fontSize=12;fillColor=#d5e8d4;strokeColor=#82b366;" parent="1" vertex="1">
          <mxGeometry x="263" y="210" width="120" height="60" as="geometry" />
        </mxCell>
        <mxCell id="0c-2BpBRQcX5IneX6j6t-10" value="Input Manager" style="rounded=0;whiteSpace=wrap;html=1;fontSize=12;fillColor=#d5e8d4;strokeColor=#82b366;" parent="1" vertex="1">
          <mxGeometry x="40" y="170" width="120" height="60" as="geometry" />
        </mxCell>
        <mxCell id="0c-2BpBRQcX5IneX6j6t-11" value="Board Renderer" style="rounded=0;whiteSpace=wrap;html=1;fontSize=12;fillColor=#d5e8d4;strokeColor=#82b366;" parent="1" vertex="1">
          <mxGeometry x="40" y="16" width="120" height="60" as="geometry" />
        </mxCell>
        <mxCell id="0c-2BpBRQcX5IneX6j6t-13" value="" style="endArrow=classic;startArrow=classic;html=1;rounded=0;strokeWidth=1;fontSize=12;jumpSize=6;entryX=1;entryY=1;entryDx=0;entryDy=0;exitX=0.5;exitY=0;exitDx=0;exitDy=0;" parent="1" source="FzNHRCO25Q5PvDcUqi0_-8" target="0c-2BpBRQcX5IneX6j6t-6" edge="1">
          <mxGeometry width="50" height="50" relative="1" as="geometry">
            <mxPoint x="400" y="250" as="sourcePoint" />
            <mxPoint x="450" y="200" as="targetPoint" />
          </mxGeometry>
        </mxCell>
        <mxCell id="0c-2BpBRQcX5IneX6j6t-14" value="Used when host is selecting a game mode to see information about them without full instantiation" style="text;html=1;strokeColor=none;fillColor=none;align=center;verticalAlign=middle;whiteSpace=wrap;rounded=0;fontSize=12;" parent="1" vertex="1">
          <mxGeometry x="100" y="415" width="180" height="30" as="geometry" />
        </mxCell>
        <mxCell id="-_ed7O7w7Avh0gZOAgUk-1" style="edgeStyle=orthogonalEdgeStyle;rounded=0;orthogonalLoop=1;jettySize=auto;html=1;exitX=0.5;exitY=0;exitDx=0;exitDy=0;entryX=0.5;entryY=1;entryDx=0;entryDy=0;fillColor=#ffe6cc;strokeColor=#d79b00;" parent="1" target="-_ed7O7w7Avh0gZOAgUk-2" edge="1">
          <mxGeometry relative="1" as="geometry">
            <mxPoint x="323" y="80" as="sourcePoint" />
          </mxGeometry>
        </mxCell>
        <mxCell id="-_ed7O7w7Avh0gZOAgUk-2" value="AIManager" style="rounded=0;whiteSpace=wrap;html=1;fontSize=12;fillColor=#ffe6cc;strokeColor=#d79b00;" parent="1" vertex="1">
          <mxGeometry x="263" y="-30" width="120" height="60" as="geometry" />
        </mxCell>
      </root>
    </mxGraphModel>
  </diagram>
  <diagram id="UBDlU0-dmZ3OMBiueULT" name="Pregame Flow">
    <mxGraphModel dx="1687" dy="899" grid="1" gridSize="10" guides="1" tooltips="1" connect="1" arrows="1" fold="1" page="1" pageScale="1" pageWidth="2000" pageHeight="2000" math="0" shadow="0">
      <root>
        <mxCell id="0" />
        <mxCell id="1" parent="0" />
        <mxCell id="l0ujYWOHNtggIaAYBqrn-2" style="edgeStyle=orthogonalEdgeStyle;rounded=0;orthogonalLoop=1;jettySize=auto;html=1;entryX=0.5;entryY=0;entryDx=0;entryDy=0;fillColor=#d5e8d4;strokeColor=#82b366;" parent="1" source="cF9vvvuPVBLY3ewm7e9X-1" target="l0ujYWOHNtggIaAYBqrn-1" edge="1">
          <mxGeometry relative="1" as="geometry" />
        </mxCell>
        <mxCell id="cF9vvvuPVBLY3ewm7e9X-1" value="&amp;nbsp;Client Start" style="rounded=1;whiteSpace=wrap;html=1;fillColor=#d5e8d4;strokeColor=#82b366;" parent="1" vertex="1">
          <mxGeometry x="210" y="90" width="120" height="60" as="geometry" />
        </mxCell>
        <mxCell id="l0ujYWOHNtggIaAYBqrn-5" style="edgeStyle=orthogonalEdgeStyle;rounded=0;orthogonalLoop=1;jettySize=auto;html=1;entryX=0;entryY=0.5;entryDx=0;entryDy=0;fillColor=#d5e8d4;strokeColor=#82b366;" parent="1" source="l0ujYWOHNtggIaAYBqrn-1" target="l0ujYWOHNtggIaAYBqrn-4" edge="1">
          <mxGeometry relative="1" as="geometry" />
        </mxCell>
        <mxCell id="l0ujYWOHNtggIaAYBqrn-23" style="edgeStyle=orthogonalEdgeStyle;shape=link;rounded=0;orthogonalLoop=1;jettySize=auto;html=1;exitX=0.5;exitY=1;exitDx=0;exitDy=0;entryX=0.5;entryY=0;entryDx=0;entryDy=0;dashed=1;fillColor=#d5e8d4;strokeColor=#82b366;" parent="1" source="l0ujYWOHNtggIaAYBqrn-1" target="l0ujYWOHNtggIaAYBqrn-14" edge="1">
          <mxGeometry relative="1" as="geometry" />
        </mxCell>
        <mxCell id="l0ujYWOHNtggIaAYBqrn-1" value="Attempt Socket Connection" style="rounded=0;whiteSpace=wrap;html=1;fillColor=#d5e8d4;strokeColor=#82b366;" parent="1" vertex="1">
          <mxGeometry x="210" y="190" width="120" height="60" as="geometry" />
        </mxCell>
        <mxCell id="l0ujYWOHNtggIaAYBqrn-21" style="edgeStyle=orthogonalEdgeStyle;shape=link;rounded=0;orthogonalLoop=1;jettySize=auto;html=1;exitX=0.5;exitY=1;exitDx=0;exitDy=0;entryX=0.5;entryY=0;entryDx=0;entryDy=0;dashed=1;fillColor=#d5e8d4;strokeColor=#82b366;" parent="1" source="l0ujYWOHNtggIaAYBqrn-3" target="l0ujYWOHNtggIaAYBqrn-4" edge="1">
          <mxGeometry relative="1" as="geometry" />
        </mxCell>
        <mxCell id="l0ujYWOHNtggIaAYBqrn-3" value="Server Start" style="rounded=1;whiteSpace=wrap;html=1;fillColor=#d5e8d4;strokeColor=#82b366;" parent="1" vertex="1">
          <mxGeometry x="570" y="90" width="120" height="60" as="geometry" />
        </mxCell>
        <mxCell id="l0ujYWOHNtggIaAYBqrn-8" value="" style="edgeStyle=orthogonalEdgeStyle;rounded=0;orthogonalLoop=1;jettySize=auto;html=1;fillColor=#d5e8d4;strokeColor=#82b366;" parent="1" source="l0ujYWOHNtggIaAYBqrn-4" target="l0ujYWOHNtggIaAYBqrn-7" edge="1">
          <mxGeometry relative="1" as="geometry" />
        </mxCell>
        <mxCell id="l0ujYWOHNtggIaAYBqrn-4" value="Accept Socket Connection" style="rounded=0;whiteSpace=wrap;html=1;fillColor=#d5e8d4;strokeColor=#82b366;" parent="1" vertex="1">
          <mxGeometry x="570" y="190" width="120" height="60" as="geometry" />
        </mxCell>
        <mxCell id="l0ujYWOHNtggIaAYBqrn-11" style="edgeStyle=orthogonalEdgeStyle;rounded=0;orthogonalLoop=1;jettySize=auto;html=1;entryX=0.5;entryY=0;entryDx=0;entryDy=0;fillColor=#d5e8d4;strokeColor=#82b366;" parent="1" source="l0ujYWOHNtggIaAYBqrn-7" target="l0ujYWOHNtggIaAYBqrn-10" edge="1">
          <mxGeometry relative="1" as="geometry">
            <Array as="points">
              <mxPoint x="540" y="325" />
            </Array>
          </mxGeometry>
        </mxCell>
        <mxCell id="l0ujYWOHNtggIaAYBqrn-13" style="edgeStyle=orthogonalEdgeStyle;rounded=0;orthogonalLoop=1;jettySize=auto;html=1;exitX=1;exitY=0.5;exitDx=0;exitDy=0;entryX=0.5;entryY=0;entryDx=0;entryDy=0;fillColor=#d5e8d4;strokeColor=#82b366;" parent="1" source="l0ujYWOHNtggIaAYBqrn-7" target="l0ujYWOHNtggIaAYBqrn-12" edge="1">
          <mxGeometry relative="1" as="geometry" />
        </mxCell>
        <mxCell id="l0ujYWOHNtggIaAYBqrn-22" style="edgeStyle=orthogonalEdgeStyle;shape=link;rounded=0;orthogonalLoop=1;jettySize=auto;html=1;exitX=0.5;exitY=1;exitDx=0;exitDy=0;entryX=0.5;entryY=0;entryDx=0;entryDy=0;dashed=1;fillColor=#d5e8d4;strokeColor=#82b366;" parent="1" source="l0ujYWOHNtggIaAYBqrn-7" target="l0ujYWOHNtggIaAYBqrn-20" edge="1">
          <mxGeometry relative="1" as="geometry" />
        </mxCell>
        <mxCell id="l0ujYWOHNtggIaAYBqrn-7" value="Is client allowed to connect" style="rhombus;whiteSpace=wrap;html=1;rounded=0;fillColor=#d5e8d4;strokeColor=#82b366;" parent="1" vertex="1">
          <mxGeometry x="557.5" y="280" width="145" height="90" as="geometry" />
        </mxCell>
        <mxCell id="l0ujYWOHNtggIaAYBqrn-15" style="edgeStyle=orthogonalEdgeStyle;rounded=0;orthogonalLoop=1;jettySize=auto;html=1;entryX=1;entryY=0.5;entryDx=0;entryDy=0;fillColor=#d5e8d4;strokeColor=#82b366;" parent="1" source="l0ujYWOHNtggIaAYBqrn-10" target="l0ujYWOHNtggIaAYBqrn-14" edge="1">
          <mxGeometry relative="1" as="geometry">
            <Array as="points">
              <mxPoint x="540" y="540" />
            </Array>
          </mxGeometry>
        </mxCell>
        <mxCell id="l0ujYWOHNtggIaAYBqrn-10" value="Send Kick Packet" style="rounded=0;whiteSpace=wrap;html=1;fillColor=#d5e8d4;strokeColor=#82b366;" parent="1" vertex="1">
          <mxGeometry x="480" y="400" width="120" height="60" as="geometry" />
        </mxCell>
        <mxCell id="l0ujYWOHNtggIaAYBqrn-16" style="edgeStyle=orthogonalEdgeStyle;rounded=0;orthogonalLoop=1;jettySize=auto;html=1;entryX=1;entryY=0.5;entryDx=0;entryDy=0;fillColor=#d5e8d4;strokeColor=#82b366;" parent="1" source="l0ujYWOHNtggIaAYBqrn-12" target="l0ujYWOHNtggIaAYBqrn-14" edge="1">
          <mxGeometry relative="1" as="geometry">
            <mxPoint x="330" y="540" as="targetPoint" />
            <Array as="points">
              <mxPoint x="725" y="540" />
            </Array>
          </mxGeometry>
        </mxCell>
        <mxCell id="l0ujYWOHNtggIaAYBqrn-12" value="Send Client Accept Packet and Packets Updating the player about all other connected players" style="rounded=0;whiteSpace=wrap;html=1;fillColor=#d5e8d4;strokeColor=#82b366;" parent="1" vertex="1">
          <mxGeometry x="650" y="400" width="150" height="60" as="geometry" />
        </mxCell>
        <mxCell id="l0ujYWOHNtggIaAYBqrn-18" style="edgeStyle=orthogonalEdgeStyle;rounded=0;orthogonalLoop=1;jettySize=auto;html=1;entryX=1;entryY=0.5;entryDx=0;entryDy=0;fillColor=#d5e8d4;strokeColor=#82b366;" parent="1" source="l0ujYWOHNtggIaAYBqrn-14" target="l0ujYWOHNtggIaAYBqrn-17" edge="1">
          <mxGeometry relative="1" as="geometry" />
        </mxCell>
        <mxCell id="l0ujYWOHNtggIaAYBqrn-25" style="edgeStyle=orthogonalEdgeStyle;rounded=0;orthogonalLoop=1;jettySize=auto;html=1;exitX=0.5;exitY=1;exitDx=0;exitDy=0;entryX=0.5;entryY=0;entryDx=0;entryDy=0;fillColor=#d5e8d4;strokeColor=#82b366;" parent="1" source="l0ujYWOHNtggIaAYBqrn-14" target="l0ujYWOHNtggIaAYBqrn-19" edge="1">
          <mxGeometry relative="1" as="geometry" />
        </mxCell>
        <mxCell id="l0ujYWOHNtggIaAYBqrn-14" value="Has client been kicked" style="rhombus;whiteSpace=wrap;html=1;fillColor=#d5e8d4;strokeColor=#82b366;" parent="1" vertex="1">
          <mxGeometry x="205" y="500" width="130" height="80" as="geometry" />
        </mxCell>
        <mxCell id="orcNdIHe5E4o3Q_vqxng-3" value="" style="edgeStyle=orthogonalEdgeStyle;rounded=0;orthogonalLoop=1;jettySize=auto;html=1;fillColor=#d5e8d4;strokeColor=#82b366;" edge="1" parent="1" source="l0ujYWOHNtggIaAYBqrn-17" target="orcNdIHe5E4o3Q_vqxng-2">
          <mxGeometry relative="1" as="geometry" />
        </mxCell>
        <mxCell id="l0ujYWOHNtggIaAYBqrn-17" value="Disconnect" style="rounded=0;whiteSpace=wrap;html=1;fillColor=#d5e8d4;strokeColor=#82b366;" parent="1" vertex="1">
          <mxGeometry x="20" y="510" width="120" height="60" as="geometry" />
        </mxCell>
        <mxCell id="l0ujYWOHNtggIaAYBqrn-26" style="edgeStyle=orthogonalEdgeStyle;rounded=0;orthogonalLoop=1;jettySize=auto;html=1;exitX=1;exitY=0.5;exitDx=0;exitDy=0;entryX=0;entryY=0.5;entryDx=0;entryDy=0;fillColor=#d5e8d4;strokeColor=#82b366;" parent="1" source="l0ujYWOHNtggIaAYBqrn-19" target="l0ujYWOHNtggIaAYBqrn-20" edge="1">
          <mxGeometry relative="1" as="geometry" />
        </mxCell>
        <mxCell id="l0ujYWOHNtggIaAYBqrn-19" value="Request Gamemode Data" style="rounded=0;whiteSpace=wrap;html=1;fillColor=#d5e8d4;strokeColor=#82b366;" parent="1" vertex="1">
          <mxGeometry x="210" y="630" width="120" height="60" as="geometry" />
        </mxCell>
        <mxCell id="l0ujYWOHNtggIaAYBqrn-28" style="edgeStyle=orthogonalEdgeStyle;rounded=0;orthogonalLoop=1;jettySize=auto;html=1;exitX=0;exitY=0.5;exitDx=0;exitDy=0;entryX=1;entryY=0.5;entryDx=0;entryDy=0;fillColor=#d5e8d4;strokeColor=#82b366;" parent="1" source="l0ujYWOHNtggIaAYBqrn-20" target="l0ujYWOHNtggIaAYBqrn-27" edge="1">
          <mxGeometry relative="1" as="geometry">
            <Array as="points">
              <mxPoint x="590" y="660" />
              <mxPoint x="590" y="760" />
            </Array>
          </mxGeometry>
        </mxCell>
        <mxCell id="l0ujYWOHNtggIaAYBqrn-30" style="edgeStyle=orthogonalEdgeStyle;shape=link;rounded=0;orthogonalLoop=1;jettySize=auto;html=1;entryX=0.5;entryY=0;entryDx=0;entryDy=0;dashed=1;fillColor=#d5e8d4;strokeColor=#82b366;" parent="1" source="l0ujYWOHNtggIaAYBqrn-20" target="l0ujYWOHNtggIaAYBqrn-31" edge="1">
          <mxGeometry relative="1" as="geometry" />
        </mxCell>
        <mxCell id="l0ujYWOHNtggIaAYBqrn-20" value="Send Gamemode data" style="rounded=0;whiteSpace=wrap;html=1;fillColor=#d5e8d4;strokeColor=#82b366;" parent="1" vertex="1">
          <mxGeometry x="570" y="630" width="120" height="60" as="geometry" />
        </mxCell>
        <mxCell id="orcNdIHe5E4o3Q_vqxng-1" style="edgeStyle=orthogonalEdgeStyle;rounded=0;orthogonalLoop=1;jettySize=auto;html=1;exitX=0.5;exitY=1;exitDx=0;exitDy=0;entryX=0.5;entryY=0;entryDx=0;entryDy=0;shape=link;dashed=1;fillColor=#d5e8d4;strokeColor=#82b366;" edge="1" parent="1" source="l0ujYWOHNtggIaAYBqrn-27" target="l0ujYWOHNtggIaAYBqrn-32">
          <mxGeometry relative="1" as="geometry" />
        </mxCell>
        <mxCell id="l0ujYWOHNtggIaAYBqrn-27" value="Parse Gamemode Data" style="rounded=0;whiteSpace=wrap;html=1;fillColor=#d5e8d4;strokeColor=#82b366;" parent="1" vertex="1">
          <mxGeometry x="210" y="730" width="120" height="60" as="geometry" />
        </mxCell>
        <mxCell id="orcNdIHe5E4o3Q_vqxng-4" style="edgeStyle=orthogonalEdgeStyle;rounded=0;orthogonalLoop=1;jettySize=auto;html=1;exitX=0;exitY=0.5;exitDx=0;exitDy=0;entryX=1;entryY=0.5;entryDx=0;entryDy=0;fillColor=#d5e8d4;strokeColor=#82b366;" edge="1" parent="1" source="l0ujYWOHNtggIaAYBqrn-29" target="l0ujYWOHNtggIaAYBqrn-31">
          <mxGeometry relative="1" as="geometry" />
        </mxCell>
        <mxCell id="l0ujYWOHNtggIaAYBqrn-29" value="Host Starts Game" style="rounded=1;whiteSpace=wrap;html=1;fillColor=#d5e8d4;strokeColor=#82b366;" parent="1" vertex="1">
          <mxGeometry x="760" y="920" width="120" height="60" as="geometry" />
        </mxCell>
        <mxCell id="l0ujYWOHNtggIaAYBqrn-34" style="edgeStyle=orthogonalEdgeStyle;rounded=0;orthogonalLoop=1;jettySize=auto;html=1;entryX=1;entryY=0.5;entryDx=0;entryDy=0;fillColor=#d5e8d4;strokeColor=#82b366;" parent="1" source="l0ujYWOHNtggIaAYBqrn-31" target="l0ujYWOHNtggIaAYBqrn-32" edge="1">
          <mxGeometry relative="1" as="geometry" />
        </mxCell>
        <mxCell id="l0ujYWOHNtggIaAYBqrn-31" value="Send Game Start Packet" style="rounded=0;whiteSpace=wrap;html=1;fillColor=#d5e8d4;strokeColor=#82b366;" parent="1" vertex="1">
          <mxGeometry x="570" y="920" width="120" height="60" as="geometry" />
        </mxCell>
        <mxCell id="l0ujYWOHNtggIaAYBqrn-32" value="Game Start" style="rounded=0;whiteSpace=wrap;html=1;fillColor=#d5e8d4;strokeColor=#82b366;" parent="1" vertex="1">
          <mxGeometry x="210" y="920" width="120" height="60" as="geometry" />
        </mxCell>
        <mxCell id="orcNdIHe5E4o3Q_vqxng-2" value="Client Stops" style="rounded=1;whiteSpace=wrap;html=1;fillColor=#d5e8d4;strokeColor=#82b366;" vertex="1" parent="1">
          <mxGeometry x="20" y="600" width="120" height="60" as="geometry" />
        </mxCell>
      </root>
    </mxGraphModel>
  </diagram>
  <diagram id="DtKZegbvSA8duGaDGav1" name="Game Flow">
    <mxGraphModel dx="1422" dy="762" grid="1" gridSize="10" guides="1" tooltips="1" connect="1" arrows="1" fold="1" page="1" pageScale="1" pageWidth="2000" pageHeight="2000" math="0" shadow="0">
      <root>
        <mxCell id="0" />
        <mxCell id="1" parent="0" />
        <mxCell id="WHNBzpBzLvbdOS3c4WSy-5" style="edgeStyle=orthogonalEdgeStyle;rounded=0;orthogonalLoop=1;jettySize=auto;html=1;entryX=0.5;entryY=0;entryDx=0;entryDy=0;fillColor=#d5e8d4;strokeColor=#82b366;" parent="1" source="WHNBzpBzLvbdOS3c4WSy-1" target="WHNBzpBzLvbdOS3c4WSy-4" edge="1">
          <mxGeometry relative="1" as="geometry" />
        </mxCell>
        <mxCell id="WHNBzpBzLvbdOS3c4WSy-1" value="Game Start" style="rounded=1;whiteSpace=wrap;html=1;fillColor=#d5e8d4;strokeColor=#82b366;" parent="1" vertex="1">
          <mxGeometry x="250" y="110" width="140" height="60" as="geometry" />
        </mxCell>
        <mxCell id="WHNBzpBzLvbdOS3c4WSy-8" style="edgeStyle=orthogonalEdgeStyle;rounded=0;orthogonalLoop=1;jettySize=auto;html=1;exitX=1;exitY=0.5;exitDx=0;exitDy=0;entryX=0;entryY=0.5;entryDx=0;entryDy=0;fillColor=#d5e8d4;strokeColor=#82b366;" parent="1" source="WHNBzpBzLvbdOS3c4WSy-3" target="WHNBzpBzLvbdOS3c4WSy-7" edge="1">
          <mxGeometry relative="1" as="geometry" />
        </mxCell>
        <mxCell id="WHNBzpBzLvbdOS3c4WSy-13" style="edgeStyle=orthogonalEdgeStyle;rounded=0;orthogonalLoop=1;jettySize=auto;html=1;entryX=0;entryY=0.5;entryDx=0;entryDy=0;fillColor=#d5e8d4;strokeColor=#82b366;" parent="1" source="WHNBzpBzLvbdOS3c4WSy-3" target="WHNBzpBzLvbdOS3c4WSy-11" edge="1">
          <mxGeometry relative="1" as="geometry">
            <Array as="points">
              <mxPoint x="500" y="440" />
            </Array>
          </mxGeometry>
        </mxCell>
        <mxCell id="Q-_R9t2d_XcJxIid9ER6-1" style="edgeStyle=orthogonalEdgeStyle;rounded=0;orthogonalLoop=1;jettySize=auto;html=1;exitX=1;exitY=0.5;exitDx=0;exitDy=0;fillColor=#d5e8d4;strokeColor=#82b366;" parent="1" source="WHNBzpBzLvbdOS3c4WSy-3" edge="1">
          <mxGeometry relative="1" as="geometry">
            <mxPoint x="600" y="240" as="targetPoint" />
          </mxGeometry>
        </mxCell>
        <mxCell id="WHNBzpBzLvbdOS3c4WSy-3" value="If my turn" style="rhombus;whiteSpace=wrap;html=1;fillColor=#d5e8d4;strokeColor=#82b366;" parent="1" vertex="1">
          <mxGeometry x="430" y="250" width="140" height="80" as="geometry" />
        </mxCell>
        <mxCell id="WHNBzpBzLvbdOS3c4WSy-6" style="edgeStyle=orthogonalEdgeStyle;rounded=0;orthogonalLoop=1;jettySize=auto;html=1;entryX=0;entryY=0.5;entryDx=0;entryDy=0;fillColor=#d5e8d4;strokeColor=#82b366;" parent="1" source="WHNBzpBzLvbdOS3c4WSy-4" target="WHNBzpBzLvbdOS3c4WSy-3" edge="1">
          <mxGeometry relative="1" as="geometry" />
        </mxCell>
        <mxCell id="WHNBzpBzLvbdOS3c4WSy-4" value="Visual Manager Update" style="rounded=0;whiteSpace=wrap;html=1;fillColor=#d5e8d4;strokeColor=#82b366;" parent="1" vertex="1">
          <mxGeometry x="260" y="260" width="120" height="60" as="geometry" />
        </mxCell>
        <mxCell id="WHNBzpBzLvbdOS3c4WSy-10" style="edgeStyle=orthogonalEdgeStyle;rounded=0;orthogonalLoop=1;jettySize=auto;html=1;exitX=1;exitY=0.5;exitDx=0;exitDy=0;entryX=0;entryY=0.5;entryDx=0;entryDy=0;fillColor=#d5e8d4;strokeColor=#82b366;" parent="1" source="WHNBzpBzLvbdOS3c4WSy-7" target="WHNBzpBzLvbdOS3c4WSy-9" edge="1">
          <mxGeometry relative="1" as="geometry" />
        </mxCell>
        <mxCell id="WHNBzpBzLvbdOS3c4WSy-7" value="Get Input Manager move" style="rounded=0;whiteSpace=wrap;html=1;fillColor=#d5e8d4;strokeColor=#82b366;" parent="1" vertex="1">
          <mxGeometry x="640" y="260" width="120" height="60" as="geometry" />
        </mxCell>
        <mxCell id="WHNBzpBzLvbdOS3c4WSy-19" style="edgeStyle=orthogonalEdgeStyle;rounded=0;orthogonalLoop=1;jettySize=auto;html=1;exitX=1;exitY=0.5;exitDx=0;exitDy=0;entryX=0.5;entryY=0;entryDx=0;entryDy=0;fillColor=#d5e8d4;strokeColor=#82b366;" parent="1" source="WHNBzpBzLvbdOS3c4WSy-9" target="WHNBzpBzLvbdOS3c4WSy-18" edge="1">
          <mxGeometry relative="1" as="geometry" />
        </mxCell>
        <mxCell id="WHNBzpBzLvbdOS3c4WSy-9" value="Send move to Server (Client)" style="rounded=0;whiteSpace=wrap;html=1;fillColor=#d5e8d4;strokeColor=#82b366;" parent="1" vertex="1">
          <mxGeometry x="850" y="260" width="120" height="60" as="geometry" />
        </mxCell>
        <mxCell id="Q-_R9t2d_XcJxIid9ER6-5" style="edgeStyle=orthogonalEdgeStyle;rounded=0;orthogonalLoop=1;jettySize=auto;html=1;exitX=0.5;exitY=1;exitDx=0;exitDy=0;entryX=1;entryY=0.5;entryDx=0;entryDy=0;fillColor=#d5e8d4;strokeColor=#82b366;" parent="1" source="WHNBzpBzLvbdOS3c4WSy-11" target="Q-_R9t2d_XcJxIid9ER6-4" edge="1">
          <mxGeometry relative="1" as="geometry" />
        </mxCell>
        <mxCell id="WHNBzpBzLvbdOS3c4WSy-11" value="Wait for Server to send move (Client)" style="rounded=0;whiteSpace=wrap;html=1;fillColor=#d5e8d4;strokeColor=#82b366;" parent="1" vertex="1">
          <mxGeometry x="850" y="410" width="120" height="60" as="geometry" />
        </mxCell>
        <mxCell id="WHNBzpBzLvbdOS3c4WSy-15" value="Yes" style="text;html=1;align=center;verticalAlign=middle;whiteSpace=wrap;rounded=0;" parent="1" vertex="1">
          <mxGeometry x="570" y="300" width="60" height="30" as="geometry" />
        </mxCell>
        <mxCell id="WHNBzpBzLvbdOS3c4WSy-16" value="No" style="text;html=1;align=center;verticalAlign=middle;whiteSpace=wrap;rounded=0;" parent="1" vertex="1">
          <mxGeometry x="510" y="360" width="60" height="30" as="geometry" />
        </mxCell>
        <mxCell id="WHNBzpBzLvbdOS3c4WSy-17" value="For simplicity, a client also will receive their own move and then update the visuals" style="text;html=1;align=center;verticalAlign=middle;whiteSpace=wrap;rounded=0;" parent="1" vertex="1">
          <mxGeometry x="910" y="460" width="220" height="105" as="geometry" />
        </mxCell>
        <mxCell id="WHNBzpBzLvbdOS3c4WSy-22" style="edgeStyle=orthogonalEdgeStyle;rounded=0;orthogonalLoop=1;jettySize=auto;html=1;entryX=0.5;entryY=0;entryDx=0;entryDy=0;fillColor=#d5e8d4;strokeColor=#82b366;" parent="1" source="WHNBzpBzLvbdOS3c4WSy-18" target="WHNBzpBzLvbdOS3c4WSy-11" edge="1">
          <mxGeometry relative="1" as="geometry" />
        </mxCell>
        <mxCell id="WHNBzpBzLvbdOS3c4WSy-18" value="Server Relay" style="shape=hexagon;perimeter=hexagonPerimeter2;whiteSpace=wrap;html=1;fixedSize=1;fillColor=#d5e8d4;strokeColor=#82b366;" parent="1" vertex="1">
          <mxGeometry x="1040" y="330" width="140" height="60" as="geometry" />
        </mxCell>
        <mxCell id="WHNBzpBzLvbdOS3c4WSy-21" style="edgeStyle=orthogonalEdgeStyle;rounded=0;orthogonalLoop=1;jettySize=auto;html=1;entryX=0.5;entryY=0;entryDx=0;entryDy=0;fillColor=#d5e8d4;strokeColor=#82b366;" parent="1" source="WHNBzpBzLvbdOS3c4WSy-20" target="WHNBzpBzLvbdOS3c4WSy-18" edge="1">
          <mxGeometry relative="1" as="geometry" />
        </mxCell>
        <mxCell id="WHNBzpBzLvbdOS3c4WSy-20" value="Foreign Player" style="rounded=0;whiteSpace=wrap;html=1;fillColor=#d5e8d4;strokeColor=#82b366;" parent="1" vertex="1">
          <mxGeometry x="1250" y="260" width="120" height="60" as="geometry" />
        </mxCell>
        <mxCell id="Q-_R9t2d_XcJxIid9ER6-3" style="edgeStyle=orthogonalEdgeStyle;rounded=0;orthogonalLoop=1;jettySize=auto;html=1;exitX=0.5;exitY=1;exitDx=0;exitDy=0;fillColor=#d5e8d4;strokeColor=#82b366;" parent="1" source="Q-_R9t2d_XcJxIid9ER6-2" edge="1">
          <mxGeometry relative="1" as="geometry">
            <mxPoint x="600" y="290" as="targetPoint" />
          </mxGeometry>
        </mxCell>
        <mxCell id="Q-_R9t2d_XcJxIid9ER6-2" value="Get moves from gamemode manager" style="rounded=0;whiteSpace=wrap;html=1;fillColor=#d5e8d4;strokeColor=#82b366;" parent="1" vertex="1">
          <mxGeometry x="540" y="180" width="120" height="60" as="geometry" />
        </mxCell>
        <mxCell id="Q-_R9t2d_XcJxIid9ER6-6" style="edgeStyle=orthogonalEdgeStyle;rounded=0;orthogonalLoop=1;jettySize=auto;html=1;exitX=0;exitY=0.5;exitDx=0;exitDy=0;entryX=0.5;entryY=1;entryDx=0;entryDy=0;fillColor=#d5e8d4;strokeColor=#82b366;" parent="1" source="Q-_R9t2d_XcJxIid9ER6-4" target="WHNBzpBzLvbdOS3c4WSy-4" edge="1">
          <mxGeometry relative="1" as="geometry" />
        </mxCell>
        <mxCell id="Q-_R9t2d_XcJxIid9ER6-4" value="Game manager OnMove" style="rounded=0;whiteSpace=wrap;html=1;fillColor=#d5e8d4;strokeColor=#82b366;" parent="1" vertex="1">
          <mxGeometry x="520" y="505" width="120" height="60" as="geometry" />
        </mxCell>
        <mxCell id="Q-_R9t2d_XcJxIid9ER6-7" value="Either returns win or next player to move" style="text;html=1;strokeColor=none;fillColor=none;align=center;verticalAlign=middle;whiteSpace=wrap;rounded=0;" parent="1" vertex="1">
          <mxGeometry x="340" y="540" width="170" height="30" as="geometry" />
        </mxCell>
        <mxCell id="K3Q74W8TPTYoPVdy1AIU-1" value="Online" style="text;html=1;strokeColor=none;fillColor=none;align=center;verticalAlign=middle;whiteSpace=wrap;rounded=0;fontSize=25;fontStyle=1" parent="1" vertex="1">
          <mxGeometry x="185" y="20" width="270" height="70" as="geometry" />
        </mxCell>
        <mxCell id="K3Q74W8TPTYoPVdy1AIU-2" style="edgeStyle=orthogonalEdgeStyle;rounded=0;orthogonalLoop=1;jettySize=auto;html=1;entryX=0.5;entryY=0;entryDx=0;entryDy=0;fillColor=#d5e8d4;strokeColor=#82b366;" parent="1" source="K3Q74W8TPTYoPVdy1AIU-3" target="K3Q74W8TPTYoPVdy1AIU-9" edge="1">
          <mxGeometry relative="1" as="geometry" />
        </mxCell>
        <mxCell id="K3Q74W8TPTYoPVdy1AIU-3" value="Game Start" style="rounded=1;whiteSpace=wrap;html=1;fillColor=#d5e8d4;strokeColor=#82b366;" parent="1" vertex="1">
          <mxGeometry x="250" y="750" width="140" height="60" as="geometry" />
        </mxCell>
        <mxCell id="8PP1UlnmJlpLkAvYvbZq-3" style="edgeStyle=orthogonalEdgeStyle;rounded=0;orthogonalLoop=1;jettySize=auto;html=1;exitX=0.5;exitY=1;exitDx=0;exitDy=0;entryX=0.5;entryY=0;entryDx=0;entryDy=0;fillColor=#d5e8d4;strokeColor=#82b366;" parent="1" source="K3Q74W8TPTYoPVdy1AIU-7" target="K3Q74W8TPTYoPVdy1AIU-29" edge="1">
          <mxGeometry relative="1" as="geometry" />
        </mxCell>
        <mxCell id="8PP1UlnmJlpLkAvYvbZq-5" style="edgeStyle=orthogonalEdgeStyle;rounded=0;orthogonalLoop=1;jettySize=auto;html=1;exitX=1;exitY=0.5;exitDx=0;exitDy=0;entryX=0.5;entryY=0;entryDx=0;entryDy=0;fillColor=#d5e8d4;strokeColor=#82b366;" parent="1" source="K3Q74W8TPTYoPVdy1AIU-7" target="8PP1UlnmJlpLkAvYvbZq-4" edge="1">
          <mxGeometry relative="1" as="geometry" />
        </mxCell>
        <mxCell id="K3Q74W8TPTYoPVdy1AIU-7" value="If my turn" style="rhombus;whiteSpace=wrap;html=1;fillColor=#d5e8d4;strokeColor=#82b366;" parent="1" vertex="1">
          <mxGeometry x="740" y="890" width="140" height="80" as="geometry" />
        </mxCell>
        <mxCell id="8PP1UlnmJlpLkAvYvbZq-1" style="edgeStyle=orthogonalEdgeStyle;rounded=0;orthogonalLoop=1;jettySize=auto;html=1;exitX=1;exitY=0.5;exitDx=0;exitDy=0;entryX=0;entryY=0.5;entryDx=0;entryDy=0;" parent="1" source="K3Q74W8TPTYoPVdy1AIU-9" target="K3Q74W8TPTYoPVdy1AIU-24" edge="1">
          <mxGeometry relative="1" as="geometry" />
        </mxCell>
        <mxCell id="K3Q74W8TPTYoPVdy1AIU-9" value="Visual Manager Update" style="rounded=0;whiteSpace=wrap;html=1;fillColor=#d5e8d4;strokeColor=#82b366;" parent="1" vertex="1">
          <mxGeometry x="260" y="900" width="120" height="60" as="geometry" />
        </mxCell>
        <mxCell id="8PP1UlnmJlpLkAvYvbZq-2" style="edgeStyle=orthogonalEdgeStyle;rounded=0;orthogonalLoop=1;jettySize=auto;html=1;exitX=1;exitY=0.5;exitDx=0;exitDy=0;entryX=0;entryY=0.5;entryDx=0;entryDy=0;" parent="1" source="K3Q74W8TPTYoPVdy1AIU-24" target="K3Q74W8TPTYoPVdy1AIU-7" edge="1">
          <mxGeometry relative="1" as="geometry" />
        </mxCell>
        <mxCell id="K3Q74W8TPTYoPVdy1AIU-24" value="Get moves from gamemode manager" style="rounded=0;whiteSpace=wrap;html=1;fillColor=#d5e8d4;strokeColor=#82b366;" parent="1" vertex="1">
          <mxGeometry x="500" y="900" width="120" height="60" as="geometry" />
        </mxCell>
        <mxCell id="K3Q74W8TPTYoPVdy1AIU-25" style="edgeStyle=orthogonalEdgeStyle;rounded=0;orthogonalLoop=1;jettySize=auto;html=1;exitX=0;exitY=0.5;exitDx=0;exitDy=0;entryX=0.5;entryY=1;entryDx=0;entryDy=0;fillColor=#d5e8d4;strokeColor=#82b366;" parent="1" source="K3Q74W8TPTYoPVdy1AIU-26" target="K3Q74W8TPTYoPVdy1AIU-9" edge="1">
          <mxGeometry relative="1" as="geometry" />
        </mxCell>
        <mxCell id="K3Q74W8TPTYoPVdy1AIU-26" value="Game manager OnMove" style="rounded=0;whiteSpace=wrap;html=1;fillColor=#d5e8d4;strokeColor=#82b366;" parent="1" vertex="1">
          <mxGeometry x="520" y="1145" width="120" height="60" as="geometry" />
        </mxCell>
        <mxCell id="K3Q74W8TPTYoPVdy1AIU-27" value="Either returns win or next player to move" style="text;html=1;align=center;verticalAlign=middle;whiteSpace=wrap;rounded=0;" parent="1" vertex="1">
          <mxGeometry x="340" y="1180" width="170" height="30" as="geometry" />
        </mxCell>
        <mxCell id="K3Q74W8TPTYoPVdy1AIU-28" value="Local Play" style="text;html=1;strokeColor=none;fillColor=none;align=center;verticalAlign=middle;whiteSpace=wrap;rounded=0;fontSize=25;fontStyle=1" parent="1" vertex="1">
          <mxGeometry x="185" y="660" width="270" height="70" as="geometry" />
        </mxCell>
        <mxCell id="K3Q74W8TPTYoPVdy1AIU-31" style="edgeStyle=orthogonalEdgeStyle;rounded=0;orthogonalLoop=1;jettySize=auto;html=1;exitX=0.5;exitY=1;exitDx=0;exitDy=0;entryX=1;entryY=0.5;entryDx=0;entryDy=0;fontSize=25;fillColor=#d5e8d4;strokeColor=#82b366;" parent="1" source="K3Q74W8TPTYoPVdy1AIU-29" target="K3Q74W8TPTYoPVdy1AIU-26" edge="1">
          <mxGeometry relative="1" as="geometry" />
        </mxCell>
        <mxCell id="K3Q74W8TPTYoPVdy1AIU-29" value="Get Input Manager move" style="rounded=0;whiteSpace=wrap;html=1;fillColor=#d5e8d4;strokeColor=#82b366;" parent="1" vertex="1">
          <mxGeometry x="660" y="1020" width="120" height="60" as="geometry" />
        </mxCell>
        <mxCell id="8PP1UlnmJlpLkAvYvbZq-6" style="edgeStyle=orthogonalEdgeStyle;rounded=0;orthogonalLoop=1;jettySize=auto;html=1;exitX=0.5;exitY=1;exitDx=0;exitDy=0;entryX=1;entryY=0.5;entryDx=0;entryDy=0;fillColor=#d5e8d4;strokeColor=#82b366;" parent="1" source="8PP1UlnmJlpLkAvYvbZq-4" target="K3Q74W8TPTYoPVdy1AIU-26" edge="1">
          <mxGeometry relative="1" as="geometry" />
        </mxCell>
        <mxCell id="8PP1UlnmJlpLkAvYvbZq-4" value="Get AI Manager move" style="rounded=0;whiteSpace=wrap;html=1;fillColor=#ffe6cc;strokeColor=#d79b00;" parent="1" vertex="1">
          <mxGeometry x="850" y="1020" width="120" height="60" as="geometry" />
        </mxCell>
      </root>
    </mxGraphModel>
  </diagram>
</mxfile>
